<mxfile host="Electron" modified="2024-03-23T01:48:08.821Z" agent="Mozilla/5.0 (Windows NT 10.0; Win64; x64) AppleWebKit/537.36 (KHTML, like Gecko) draw.io/24.0.4 Chrome/120.0.6099.109 Electron/28.1.0 Safari/537.36" etag="e6MhdZ52PPmMv8_qwY-U" version="24.0.4" type="device" pages="2">
  <diagram name="intro" id="CC1X-T2M9uyqJMKbbvtn">
    <mxGraphModel dx="1114" dy="1673" grid="1" gridSize="10" guides="1" tooltips="1" connect="1" arrows="1" fold="1" page="1" pageScale="1" pageWidth="500" pageHeight="229" math="1" shadow="0">
      <root>
        <mxCell id="0" />
        <mxCell id="1" parent="0" />
        <mxCell id="78GMk1-3RHfl2nPPVAb4-1" value="" style="group" vertex="1" connectable="0" parent="1">
          <mxGeometry y="-60" width="470" height="288" as="geometry" />
        </mxCell>
        <mxCell id="78GMk1-3RHfl2nPPVAb4-2" value="&lt;span style=&quot;font-size: 14px;&quot;&gt;&lt;span&gt;Path-sensitive solver&lt;/span&gt;&lt;/span&gt;" style="text;html=1;align=center;verticalAlign=middle;whiteSpace=wrap;rounded=0;fontStyle=0;fillColor=#f8cecc;strokeColor=#b85450;fontFamily=Comic Sans MS;shadow=0;textShadow=0;" vertex="1" parent="78GMk1-3RHfl2nPPVAb4-1">
          <mxGeometry x="78.22" y="263" width="140" height="25" as="geometry" />
        </mxCell>
        <mxCell id="78GMk1-3RHfl2nPPVAb4-3" style="rounded=0;orthogonalLoop=1;jettySize=auto;html=1;exitX=0;exitY=1;exitDx=0;exitDy=0;entryX=0.5;entryY=0;entryDx=0;entryDy=0;" edge="1" parent="78GMk1-3RHfl2nPPVAb4-1" source="78GMk1-3RHfl2nPPVAb4-5" target="78GMk1-3RHfl2nPPVAb4-13">
          <mxGeometry relative="1" as="geometry" />
        </mxCell>
        <mxCell id="78GMk1-3RHfl2nPPVAb4-4" style="rounded=0;orthogonalLoop=1;jettySize=auto;html=1;exitX=1;exitY=1;exitDx=0;exitDy=0;entryX=0;entryY=0;entryDx=0;entryDy=0;" edge="1" parent="78GMk1-3RHfl2nPPVAb4-1" source="78GMk1-3RHfl2nPPVAb4-5" target="78GMk1-3RHfl2nPPVAb4-15">
          <mxGeometry relative="1" as="geometry" />
        </mxCell>
        <mxCell id="78GMk1-3RHfl2nPPVAb4-5" value="&lt;font face=&quot;Comic Sans MS&quot;&gt;if(&amp;nbsp; &amp;nbsp; )&lt;/font&gt;" style="ellipse;whiteSpace=wrap;html=1;" vertex="1" parent="78GMk1-3RHfl2nPPVAb4-1">
          <mxGeometry x="104" y="110" width="60" height="30" as="geometry" />
        </mxCell>
        <mxCell id="78GMk1-3RHfl2nPPVAb4-6" value="$$\phi_1$$" style="text;html=1;align=center;verticalAlign=middle;whiteSpace=wrap;rounded=0;" vertex="1" parent="78GMk1-3RHfl2nPPVAb4-1">
          <mxGeometry x="130" y="115" width="20" height="20" as="geometry" />
        </mxCell>
        <mxCell id="78GMk1-3RHfl2nPPVAb4-7" style="edgeStyle=orthogonalEdgeStyle;rounded=0;orthogonalLoop=1;jettySize=auto;html=1;exitX=0.5;exitY=1;exitDx=0;exitDy=0;entryX=0.5;entryY=0;entryDx=0;entryDy=0;" edge="1" parent="78GMk1-3RHfl2nPPVAb4-1" source="78GMk1-3RHfl2nPPVAb4-8" target="78GMk1-3RHfl2nPPVAb4-10">
          <mxGeometry relative="1" as="geometry" />
        </mxCell>
        <mxCell id="78GMk1-3RHfl2nPPVAb4-8" value="&lt;font face=&quot;Comic Sans MS&quot;&gt;Entry&lt;/font&gt;" style="rounded=0;whiteSpace=wrap;html=1;" vertex="1" parent="78GMk1-3RHfl2nPPVAb4-1">
          <mxGeometry x="94" width="80" height="20" as="geometry" />
        </mxCell>
        <mxCell id="78GMk1-3RHfl2nPPVAb4-9" style="edgeStyle=orthogonalEdgeStyle;rounded=0;orthogonalLoop=1;jettySize=auto;html=1;exitX=0.5;exitY=1;exitDx=0;exitDy=0;entryX=0.5;entryY=0;entryDx=0;entryDy=0;" edge="1" parent="78GMk1-3RHfl2nPPVAb4-1" source="78GMk1-3RHfl2nPPVAb4-10" target="78GMk1-3RHfl2nPPVAb4-12">
          <mxGeometry relative="1" as="geometry" />
        </mxCell>
        <mxCell id="78GMk1-3RHfl2nPPVAb4-10" value="&lt;font face=&quot;Comic Sans MS&quot;&gt;var := input()&lt;/font&gt;" style="rounded=0;whiteSpace=wrap;html=1;" vertex="1" parent="78GMk1-3RHfl2nPPVAb4-1">
          <mxGeometry x="94" y="40" width="80" height="20" as="geometry" />
        </mxCell>
        <mxCell id="78GMk1-3RHfl2nPPVAb4-11" style="edgeStyle=orthogonalEdgeStyle;rounded=0;orthogonalLoop=1;jettySize=auto;html=1;exitX=0.5;exitY=1;exitDx=0;exitDy=0;entryX=0.5;entryY=0;entryDx=0;entryDy=0;" edge="1" parent="78GMk1-3RHfl2nPPVAb4-1" source="78GMk1-3RHfl2nPPVAb4-12" target="78GMk1-3RHfl2nPPVAb4-5">
          <mxGeometry relative="1" as="geometry" />
        </mxCell>
        <mxCell id="78GMk1-3RHfl2nPPVAb4-12" value="&lt;font face=&quot;Comic Sans MS&quot;&gt;......&lt;/font&gt;" style="rounded=0;whiteSpace=wrap;html=1;" vertex="1" parent="78GMk1-3RHfl2nPPVAb4-1">
          <mxGeometry x="94" y="76" width="80" height="20" as="geometry" />
        </mxCell>
        <mxCell id="78GMk1-3RHfl2nPPVAb4-13" value="&lt;font face=&quot;Comic Sans MS&quot;&gt;......&lt;/font&gt;" style="rounded=0;whiteSpace=wrap;html=1;" vertex="1" parent="78GMk1-3RHfl2nPPVAb4-1">
          <mxGeometry x="50" y="150" width="34" height="20" as="geometry" />
        </mxCell>
        <mxCell id="78GMk1-3RHfl2nPPVAb4-14" style="rounded=0;orthogonalLoop=1;jettySize=auto;html=1;exitX=0;exitY=1;exitDx=0;exitDy=0;entryX=1;entryY=0;entryDx=0;entryDy=0;" edge="1" parent="78GMk1-3RHfl2nPPVAb4-1" source="78GMk1-3RHfl2nPPVAb4-15" target="78GMk1-3RHfl2nPPVAb4-18">
          <mxGeometry relative="1" as="geometry" />
        </mxCell>
        <mxCell id="78GMk1-3RHfl2nPPVAb4-15" value="&lt;font face=&quot;Comic Sans MS&quot;&gt;......&lt;/font&gt;" style="rounded=0;whiteSpace=wrap;html=1;" vertex="1" parent="78GMk1-3RHfl2nPPVAb4-1">
          <mxGeometry x="164" y="150" width="34" height="20" as="geometry" />
        </mxCell>
        <mxCell id="78GMk1-3RHfl2nPPVAb4-16" style="rounded=0;orthogonalLoop=1;jettySize=auto;html=1;exitX=0;exitY=1;exitDx=0;exitDy=0;entryX=0.75;entryY=0;entryDx=0;entryDy=0;" edge="1" parent="78GMk1-3RHfl2nPPVAb4-1" source="78GMk1-3RHfl2nPPVAb4-18" target="78GMk1-3RHfl2nPPVAb4-22">
          <mxGeometry relative="1" as="geometry" />
        </mxCell>
        <mxCell id="78GMk1-3RHfl2nPPVAb4-17" style="rounded=0;orthogonalLoop=1;jettySize=auto;html=1;exitX=1;exitY=1;exitDx=0;exitDy=0;entryX=0;entryY=0;entryDx=0;entryDy=0;" edge="1" parent="78GMk1-3RHfl2nPPVAb4-1" source="78GMk1-3RHfl2nPPVAb4-18" target="78GMk1-3RHfl2nPPVAb4-21">
          <mxGeometry relative="1" as="geometry" />
        </mxCell>
        <mxCell id="78GMk1-3RHfl2nPPVAb4-18" value="&lt;font face=&quot;Comic Sans MS&quot;&gt;if(&amp;nbsp; &amp;nbsp; )&lt;/font&gt;" style="ellipse;whiteSpace=wrap;html=1;" vertex="1" parent="78GMk1-3RHfl2nPPVAb4-1">
          <mxGeometry x="104" y="180" width="60" height="30" as="geometry" />
        </mxCell>
        <mxCell id="78GMk1-3RHfl2nPPVAb4-19" value="$$\phi_2$$" style="text;html=1;align=center;verticalAlign=middle;whiteSpace=wrap;rounded=0;" vertex="1" parent="78GMk1-3RHfl2nPPVAb4-1">
          <mxGeometry x="130" y="185" width="20" height="20" as="geometry" />
        </mxCell>
        <mxCell id="78GMk1-3RHfl2nPPVAb4-20" style="rounded=0;orthogonalLoop=1;jettySize=auto;html=1;entryX=0;entryY=0;entryDx=0;entryDy=0;" edge="1" parent="78GMk1-3RHfl2nPPVAb4-1" source="78GMk1-3RHfl2nPPVAb4-13" target="78GMk1-3RHfl2nPPVAb4-18">
          <mxGeometry relative="1" as="geometry" />
        </mxCell>
        <mxCell id="78GMk1-3RHfl2nPPVAb4-21" value="&lt;font face=&quot;Comic Sans MS&quot;&gt;......&lt;/font&gt;" style="rounded=0;whiteSpace=wrap;html=1;" vertex="1" parent="78GMk1-3RHfl2nPPVAb4-1">
          <mxGeometry x="184" y="220" width="34" height="20" as="geometry" />
        </mxCell>
        <mxCell id="78GMk1-3RHfl2nPPVAb4-22" value="&lt;font face=&quot;Comic Sans MS&quot;&gt;......&lt;/font&gt;" style="rounded=0;whiteSpace=wrap;html=1;" vertex="1" parent="78GMk1-3RHfl2nPPVAb4-1">
          <mxGeometry x="60" y="230" width="34" height="20" as="geometry" />
        </mxCell>
        <mxCell id="78GMk1-3RHfl2nPPVAb4-23" value="" style="shape=table;startSize=0;container=1;collapsible=0;childLayout=tableLayout;fontSize=16;fillColor=#fff2cc;strokeColor=#d6b656;" vertex="1" parent="78GMk1-3RHfl2nPPVAb4-1">
          <mxGeometry x="270" y="30" width="150" height="93" as="geometry" />
        </mxCell>
        <mxCell id="78GMk1-3RHfl2nPPVAb4-24" value="" style="shape=tableRow;horizontal=0;startSize=0;swimlaneHead=0;swimlaneBody=0;strokeColor=inherit;top=0;left=0;bottom=0;right=0;collapsible=0;dropTarget=0;fillColor=none;points=[[0,0.5],[1,0.5]];portConstraint=eastwest;fontSize=16;" vertex="1" parent="78GMk1-3RHfl2nPPVAb4-23">
          <mxGeometry width="150" height="23" as="geometry" />
        </mxCell>
        <mxCell id="78GMk1-3RHfl2nPPVAb4-25" value="var" style="shape=partialRectangle;html=1;whiteSpace=wrap;connectable=0;strokeColor=inherit;overflow=hidden;fillColor=none;top=0;left=0;bottom=0;right=0;pointerEvents=1;fontSize=16;fontFamily=Comic Sans MS;" vertex="1" parent="78GMk1-3RHfl2nPPVAb4-24">
          <mxGeometry width="75" height="23" as="geometry">
            <mxRectangle width="75" height="23" as="alternateBounds" />
          </mxGeometry>
        </mxCell>
        <mxCell id="78GMk1-3RHfl2nPPVAb4-26" value="" style="shape=partialRectangle;html=1;whiteSpace=wrap;connectable=0;strokeColor=inherit;overflow=hidden;fillColor=none;top=0;left=0;bottom=0;right=0;pointerEvents=1;fontSize=16;" vertex="1" parent="78GMk1-3RHfl2nPPVAb4-24">
          <mxGeometry x="75" width="75" height="23" as="geometry">
            <mxRectangle width="75" height="23" as="alternateBounds" />
          </mxGeometry>
        </mxCell>
        <mxCell id="78GMk1-3RHfl2nPPVAb4-27" value="" style="shape=tableRow;horizontal=0;startSize=0;swimlaneHead=0;swimlaneBody=0;strokeColor=inherit;top=0;left=0;bottom=0;right=0;collapsible=0;dropTarget=0;fillColor=none;points=[[0,0.5],[1,0.5]];portConstraint=eastwest;fontSize=16;" vertex="1" parent="78GMk1-3RHfl2nPPVAb4-23">
          <mxGeometry y="23" width="150" height="24" as="geometry" />
        </mxCell>
        <mxCell id="78GMk1-3RHfl2nPPVAb4-28" value="" style="shape=partialRectangle;html=1;whiteSpace=wrap;connectable=0;strokeColor=inherit;overflow=hidden;fillColor=none;top=0;left=0;bottom=0;right=0;pointerEvents=1;fontSize=16;" vertex="1" parent="78GMk1-3RHfl2nPPVAb4-27">
          <mxGeometry width="75" height="24" as="geometry">
            <mxRectangle width="75" height="24" as="alternateBounds" />
          </mxGeometry>
        </mxCell>
        <mxCell id="78GMk1-3RHfl2nPPVAb4-29" value="&lt;font face=&quot;Comic Sans MS&quot;&gt;var &amp;gt; 0&lt;/font&gt;" style="shape=partialRectangle;html=1;whiteSpace=wrap;connectable=0;strokeColor=inherit;overflow=hidden;fillColor=none;top=0;left=0;bottom=0;right=0;pointerEvents=1;fontSize=16;" vertex="1" parent="78GMk1-3RHfl2nPPVAb4-27">
          <mxGeometry x="75" width="75" height="24" as="geometry">
            <mxRectangle width="75" height="24" as="alternateBounds" />
          </mxGeometry>
        </mxCell>
        <mxCell id="78GMk1-3RHfl2nPPVAb4-30" value="" style="shape=tableRow;horizontal=0;startSize=0;swimlaneHead=0;swimlaneBody=0;strokeColor=inherit;top=0;left=0;bottom=0;right=0;collapsible=0;dropTarget=0;fillColor=none;points=[[0,0.5],[1,0.5]];portConstraint=eastwest;fontSize=16;" vertex="1" parent="78GMk1-3RHfl2nPPVAb4-23">
          <mxGeometry y="47" width="150" height="23" as="geometry" />
        </mxCell>
        <mxCell id="78GMk1-3RHfl2nPPVAb4-31" value="" style="shape=partialRectangle;html=1;whiteSpace=wrap;connectable=0;strokeColor=inherit;overflow=hidden;fillColor=none;top=0;left=0;bottom=0;right=0;pointerEvents=1;fontSize=16;" vertex="1" parent="78GMk1-3RHfl2nPPVAb4-30">
          <mxGeometry width="75" height="23" as="geometry">
            <mxRectangle width="75" height="23" as="alternateBounds" />
          </mxGeometry>
        </mxCell>
        <mxCell id="78GMk1-3RHfl2nPPVAb4-32" value="&lt;font face=&quot;Comic Sans MS&quot;&gt;var &amp;gt; 5&lt;/font&gt;" style="shape=partialRectangle;html=1;whiteSpace=wrap;connectable=0;strokeColor=inherit;overflow=hidden;fillColor=none;top=0;left=0;bottom=0;right=0;pointerEvents=1;fontSize=16;" vertex="1" parent="78GMk1-3RHfl2nPPVAb4-30">
          <mxGeometry x="75" width="75" height="23" as="geometry">
            <mxRectangle width="75" height="23" as="alternateBounds" />
          </mxGeometry>
        </mxCell>
        <mxCell id="78GMk1-3RHfl2nPPVAb4-33" style="shape=tableRow;horizontal=0;startSize=0;swimlaneHead=0;swimlaneBody=0;strokeColor=inherit;top=0;left=0;bottom=0;right=0;collapsible=0;dropTarget=0;fillColor=none;points=[[0,0.5],[1,0.5]];portConstraint=eastwest;fontSize=16;" vertex="1" parent="78GMk1-3RHfl2nPPVAb4-23">
          <mxGeometry y="70" width="150" height="23" as="geometry" />
        </mxCell>
        <mxCell id="78GMk1-3RHfl2nPPVAb4-34" value="..." style="shape=partialRectangle;html=1;whiteSpace=wrap;connectable=0;strokeColor=inherit;overflow=hidden;fillColor=none;top=0;left=0;bottom=0;right=0;pointerEvents=1;fontSize=16;" vertex="1" parent="78GMk1-3RHfl2nPPVAb4-33">
          <mxGeometry width="75" height="23" as="geometry">
            <mxRectangle width="75" height="23" as="alternateBounds" />
          </mxGeometry>
        </mxCell>
        <mxCell id="78GMk1-3RHfl2nPPVAb4-35" value="..." style="shape=partialRectangle;html=1;whiteSpace=wrap;connectable=0;strokeColor=inherit;overflow=hidden;fillColor=none;top=0;left=0;bottom=0;right=0;pointerEvents=1;fontSize=16;" vertex="1" parent="78GMk1-3RHfl2nPPVAb4-33">
          <mxGeometry x="75" width="75" height="23" as="geometry">
            <mxRectangle width="75" height="23" as="alternateBounds" />
          </mxGeometry>
        </mxCell>
        <mxCell id="78GMk1-3RHfl2nPPVAb4-36" value="(Abstract) Execution State" style="rounded=0;whiteSpace=wrap;html=1;fontFamily=Comic Sans MS;fillColor=#fff2cc;strokeColor=#d6b656;" vertex="1" parent="78GMk1-3RHfl2nPPVAb4-1">
          <mxGeometry x="270" width="150" height="30" as="geometry" />
        </mxCell>
        <mxCell id="78GMk1-3RHfl2nPPVAb4-37" value="$$[-\infty, +\infty]$$" style="text;html=1;align=center;verticalAlign=middle;whiteSpace=wrap;rounded=0;" vertex="1" parent="78GMk1-3RHfl2nPPVAb4-1">
          <mxGeometry x="362" y="32" width="40" height="20" as="geometry" />
        </mxCell>
        <mxCell id="78GMk1-3RHfl2nPPVAb4-38" value="&lt;font face=&quot;Comic Sans MS&quot;&gt;$$\phi_1$$&lt;/font&gt;" style="text;html=1;align=center;verticalAlign=middle;whiteSpace=wrap;rounded=0;" vertex="1" parent="78GMk1-3RHfl2nPPVAb4-1">
          <mxGeometry x="300" y="55" width="20" height="20" as="geometry" />
        </mxCell>
        <mxCell id="78GMk1-3RHfl2nPPVAb4-39" value="&lt;font face=&quot;Comic Sans MS&quot;&gt;$$\phi_2$$&lt;/font&gt;" style="text;html=1;align=center;verticalAlign=middle;whiteSpace=wrap;rounded=0;" vertex="1" parent="78GMk1-3RHfl2nPPVAb4-1">
          <mxGeometry x="300" y="76" width="20" height="20" as="geometry" />
        </mxCell>
        <mxCell id="78GMk1-3RHfl2nPPVAb4-40" value="" style="endArrow=classic;html=1;rounded=0;edgeStyle=orthogonalEdgeStyle;curved=1;strokeColor=#A1A1A1;entryX=0.668;entryY=-0.179;entryDx=0;entryDy=0;entryPerimeter=0;fontColor=#A1A1A1;" edge="1" parent="78GMk1-3RHfl2nPPVAb4-1">
          <mxGeometry width="50" height="50" relative="1" as="geometry">
            <mxPoint x="131.98" y="20" as="sourcePoint" />
            <mxPoint x="70.7120000000001" y="226.41999999999996" as="targetPoint" />
            <Array as="points">
              <mxPoint x="132" y="135" />
              <mxPoint x="162" y="135" />
              <mxPoint x="162" y="180" />
              <mxPoint x="132" y="180" />
              <mxPoint x="132" y="210" />
              <mxPoint x="71" y="210" />
            </Array>
          </mxGeometry>
        </mxCell>
        <mxCell id="78GMk1-3RHfl2nPPVAb4-41" value="" style="endArrow=classic;html=1;rounded=0;edgeStyle=orthogonalEdgeStyle;curved=1;strokeColor=#A1A1A1;entryX=0.75;entryY=0;entryDx=0;entryDy=0;fontColor=#A1A1A1;" edge="1" parent="78GMk1-3RHfl2nPPVAb4-1">
          <mxGeometry width="50" height="50" relative="1" as="geometry">
            <mxPoint x="145.98999999999998" y="19" as="sourcePoint" />
            <mxPoint x="207.5" y="219" as="targetPoint" />
            <Array as="points">
              <mxPoint x="146" y="134" />
              <mxPoint x="176" y="134" />
              <mxPoint x="176" y="179" />
              <mxPoint x="168" y="179" />
              <mxPoint x="168" y="199" />
              <mxPoint x="208" y="199" />
            </Array>
          </mxGeometry>
        </mxCell>
        <mxCell id="78GMk1-3RHfl2nPPVAb4-42" value="$$\phi_2\wedge\neg\phi_1$$" style="text;html=1;align=center;verticalAlign=middle;whiteSpace=wrap;rounded=0;fontColor=#FFFFFF;" vertex="1" parent="78GMk1-3RHfl2nPPVAb4-1">
          <mxGeometry x="44" y="180" width="60" height="30" as="geometry" />
        </mxCell>
        <mxCell id="78GMk1-3RHfl2nPPVAb4-43" value="Infeasible" style="text;html=1;align=left;verticalAlign=middle;whiteSpace=wrap;rounded=0;fontFamily=Comic Sans MS;fontColor=#FFFFFF;" vertex="1" parent="78GMk1-3RHfl2nPPVAb4-1">
          <mxGeometry y="200" width="60" height="30" as="geometry" />
        </mxCell>
        <mxCell id="78GMk1-3RHfl2nPPVAb4-44" value="&lt;font&gt;Feasible&lt;/font&gt;" style="text;html=1;align=left;verticalAlign=middle;whiteSpace=wrap;rounded=0;fontFamily=Comic Sans MS;fontColor=#FFFFFF;" vertex="1" parent="78GMk1-3RHfl2nPPVAb4-1">
          <mxGeometry x="220" y="190" width="60" height="30" as="geometry" />
        </mxCell>
        <mxCell id="78GMk1-3RHfl2nPPVAb4-45" value="$$\neg\phi_2\wedge\neg\phi_1$$" style="text;html=1;align=center;verticalAlign=middle;whiteSpace=wrap;rounded=0;fontColor=#FFFFFF;" vertex="1" parent="78GMk1-3RHfl2nPPVAb4-1">
          <mxGeometry x="198" y="175" width="60" height="30" as="geometry" />
        </mxCell>
        <mxCell id="78GMk1-3RHfl2nPPVAb4-46" value="" style="shape=flexArrow;endArrow=classic;html=1;rounded=0;strokeColor=#FFFFFF;" edge="1" parent="78GMk1-3RHfl2nPPVAb4-1">
          <mxGeometry width="50" height="50" relative="1" as="geometry">
            <mxPoint x="350" y="130" as="sourcePoint" />
            <mxPoint x="260" y="190" as="targetPoint" />
          </mxGeometry>
        </mxCell>
        <mxCell id="78GMk1-3RHfl2nPPVAb4-47" value="&lt;font style=&quot;font-size: 14px;&quot;&gt;Check path feasibility based on &lt;b&gt;execution state&lt;/b&gt;&lt;/font&gt;" style="text;html=1;align=center;verticalAlign=middle;whiteSpace=wrap;rounded=0;fontStyle=0;fillColor=#FFFFFF;strokeColor=#FFFFFF;fontFamily=Garamond;shadow=0;textShadow=0;fontColor=#FFFFFF;" vertex="1" parent="78GMk1-3RHfl2nPPVAb4-1">
          <mxGeometry x="296.43" y="190" width="173.57" height="38" as="geometry" />
        </mxCell>
        <mxCell id="78GMk1-3RHfl2nPPVAb4-48" value="" style="group" vertex="1" connectable="0" parent="1">
          <mxGeometry x="10" y="-410" width="470" height="288" as="geometry" />
        </mxCell>
        <mxCell id="78GMk1-3RHfl2nPPVAb4-49" value="&lt;span style=&quot;font-size: 14px;&quot;&gt;&lt;span&gt;Path-sensitive solver&lt;/span&gt;&lt;/span&gt;" style="text;html=1;align=center;verticalAlign=middle;whiteSpace=wrap;rounded=0;fontStyle=0;fillColor=#f8cecc;strokeColor=#b85450;fontFamily=Comic Sans MS;shadow=0;textShadow=0;" vertex="1" parent="78GMk1-3RHfl2nPPVAb4-48">
          <mxGeometry x="78.22" y="263" width="140" height="25" as="geometry" />
        </mxCell>
        <mxCell id="78GMk1-3RHfl2nPPVAb4-50" style="rounded=0;orthogonalLoop=1;jettySize=auto;html=1;exitX=0;exitY=1;exitDx=0;exitDy=0;entryX=0.5;entryY=0;entryDx=0;entryDy=0;" edge="1" parent="78GMk1-3RHfl2nPPVAb4-48" source="78GMk1-3RHfl2nPPVAb4-52" target="78GMk1-3RHfl2nPPVAb4-60">
          <mxGeometry relative="1" as="geometry" />
        </mxCell>
        <mxCell id="78GMk1-3RHfl2nPPVAb4-51" style="rounded=0;orthogonalLoop=1;jettySize=auto;html=1;exitX=1;exitY=1;exitDx=0;exitDy=0;entryX=0;entryY=0;entryDx=0;entryDy=0;" edge="1" parent="78GMk1-3RHfl2nPPVAb4-48" source="78GMk1-3RHfl2nPPVAb4-52" target="78GMk1-3RHfl2nPPVAb4-62">
          <mxGeometry relative="1" as="geometry" />
        </mxCell>
        <mxCell id="78GMk1-3RHfl2nPPVAb4-52" value="&lt;font face=&quot;Comic Sans MS&quot;&gt;if(&amp;nbsp; &amp;nbsp; )&lt;/font&gt;" style="ellipse;whiteSpace=wrap;html=1;" vertex="1" parent="78GMk1-3RHfl2nPPVAb4-48">
          <mxGeometry x="104" y="110" width="60" height="30" as="geometry" />
        </mxCell>
        <mxCell id="78GMk1-3RHfl2nPPVAb4-53" value="$$\phi_1$$" style="text;html=1;align=center;verticalAlign=middle;whiteSpace=wrap;rounded=0;" vertex="1" parent="78GMk1-3RHfl2nPPVAb4-48">
          <mxGeometry x="130" y="115" width="20" height="20" as="geometry" />
        </mxCell>
        <mxCell id="78GMk1-3RHfl2nPPVAb4-54" style="edgeStyle=orthogonalEdgeStyle;rounded=0;orthogonalLoop=1;jettySize=auto;html=1;exitX=0.5;exitY=1;exitDx=0;exitDy=0;entryX=0.5;entryY=0;entryDx=0;entryDy=0;" edge="1" parent="78GMk1-3RHfl2nPPVAb4-48" source="78GMk1-3RHfl2nPPVAb4-55" target="78GMk1-3RHfl2nPPVAb4-57">
          <mxGeometry relative="1" as="geometry" />
        </mxCell>
        <mxCell id="78GMk1-3RHfl2nPPVAb4-55" value="&lt;font face=&quot;Comic Sans MS&quot;&gt;Entry&lt;/font&gt;" style="rounded=0;whiteSpace=wrap;html=1;" vertex="1" parent="78GMk1-3RHfl2nPPVAb4-48">
          <mxGeometry x="94" width="80" height="20" as="geometry" />
        </mxCell>
        <mxCell id="78GMk1-3RHfl2nPPVAb4-56" style="edgeStyle=orthogonalEdgeStyle;rounded=0;orthogonalLoop=1;jettySize=auto;html=1;exitX=0.5;exitY=1;exitDx=0;exitDy=0;entryX=0.5;entryY=0;entryDx=0;entryDy=0;" edge="1" parent="78GMk1-3RHfl2nPPVAb4-48" source="78GMk1-3RHfl2nPPVAb4-57" target="78GMk1-3RHfl2nPPVAb4-59">
          <mxGeometry relative="1" as="geometry" />
        </mxCell>
        <mxCell id="78GMk1-3RHfl2nPPVAb4-57" value="&lt;font face=&quot;Comic Sans MS&quot;&gt;var := input()&lt;/font&gt;" style="rounded=0;whiteSpace=wrap;html=1;" vertex="1" parent="78GMk1-3RHfl2nPPVAb4-48">
          <mxGeometry x="94" y="40" width="80" height="20" as="geometry" />
        </mxCell>
        <mxCell id="78GMk1-3RHfl2nPPVAb4-58" style="edgeStyle=orthogonalEdgeStyle;rounded=0;orthogonalLoop=1;jettySize=auto;html=1;exitX=0.5;exitY=1;exitDx=0;exitDy=0;entryX=0.5;entryY=0;entryDx=0;entryDy=0;" edge="1" parent="78GMk1-3RHfl2nPPVAb4-48" source="78GMk1-3RHfl2nPPVAb4-59" target="78GMk1-3RHfl2nPPVAb4-52">
          <mxGeometry relative="1" as="geometry" />
        </mxCell>
        <mxCell id="78GMk1-3RHfl2nPPVAb4-59" value="&lt;font face=&quot;Comic Sans MS&quot;&gt;......&lt;/font&gt;" style="rounded=0;whiteSpace=wrap;html=1;" vertex="1" parent="78GMk1-3RHfl2nPPVAb4-48">
          <mxGeometry x="94" y="76" width="80" height="20" as="geometry" />
        </mxCell>
        <mxCell id="78GMk1-3RHfl2nPPVAb4-60" value="&lt;font face=&quot;Comic Sans MS&quot;&gt;......&lt;/font&gt;" style="rounded=0;whiteSpace=wrap;html=1;" vertex="1" parent="78GMk1-3RHfl2nPPVAb4-48">
          <mxGeometry x="50" y="150" width="34" height="20" as="geometry" />
        </mxCell>
        <mxCell id="78GMk1-3RHfl2nPPVAb4-61" style="rounded=0;orthogonalLoop=1;jettySize=auto;html=1;exitX=0;exitY=1;exitDx=0;exitDy=0;entryX=1;entryY=0;entryDx=0;entryDy=0;" edge="1" parent="78GMk1-3RHfl2nPPVAb4-48" source="78GMk1-3RHfl2nPPVAb4-62" target="78GMk1-3RHfl2nPPVAb4-65">
          <mxGeometry relative="1" as="geometry" />
        </mxCell>
        <mxCell id="78GMk1-3RHfl2nPPVAb4-62" value="&lt;font face=&quot;Comic Sans MS&quot;&gt;......&lt;/font&gt;" style="rounded=0;whiteSpace=wrap;html=1;" vertex="1" parent="78GMk1-3RHfl2nPPVAb4-48">
          <mxGeometry x="164" y="150" width="34" height="20" as="geometry" />
        </mxCell>
        <mxCell id="78GMk1-3RHfl2nPPVAb4-63" style="rounded=0;orthogonalLoop=1;jettySize=auto;html=1;exitX=0;exitY=1;exitDx=0;exitDy=0;entryX=0.75;entryY=0;entryDx=0;entryDy=0;" edge="1" parent="78GMk1-3RHfl2nPPVAb4-48" source="78GMk1-3RHfl2nPPVAb4-65" target="78GMk1-3RHfl2nPPVAb4-69">
          <mxGeometry relative="1" as="geometry" />
        </mxCell>
        <mxCell id="78GMk1-3RHfl2nPPVAb4-64" style="rounded=0;orthogonalLoop=1;jettySize=auto;html=1;exitX=1;exitY=1;exitDx=0;exitDy=0;entryX=0;entryY=0;entryDx=0;entryDy=0;" edge="1" parent="78GMk1-3RHfl2nPPVAb4-48" source="78GMk1-3RHfl2nPPVAb4-65" target="78GMk1-3RHfl2nPPVAb4-68">
          <mxGeometry relative="1" as="geometry" />
        </mxCell>
        <mxCell id="78GMk1-3RHfl2nPPVAb4-65" value="&lt;font face=&quot;Comic Sans MS&quot;&gt;if(&amp;nbsp; &amp;nbsp; )&lt;/font&gt;" style="ellipse;whiteSpace=wrap;html=1;" vertex="1" parent="78GMk1-3RHfl2nPPVAb4-48">
          <mxGeometry x="104" y="180" width="60" height="30" as="geometry" />
        </mxCell>
        <mxCell id="78GMk1-3RHfl2nPPVAb4-66" value="$$\phi_2$$" style="text;html=1;align=center;verticalAlign=middle;whiteSpace=wrap;rounded=0;" vertex="1" parent="78GMk1-3RHfl2nPPVAb4-48">
          <mxGeometry x="130" y="185" width="20" height="20" as="geometry" />
        </mxCell>
        <mxCell id="78GMk1-3RHfl2nPPVAb4-67" style="rounded=0;orthogonalLoop=1;jettySize=auto;html=1;entryX=0;entryY=0;entryDx=0;entryDy=0;" edge="1" parent="78GMk1-3RHfl2nPPVAb4-48" source="78GMk1-3RHfl2nPPVAb4-60" target="78GMk1-3RHfl2nPPVAb4-65">
          <mxGeometry relative="1" as="geometry" />
        </mxCell>
        <mxCell id="78GMk1-3RHfl2nPPVAb4-68" value="&lt;font face=&quot;Comic Sans MS&quot;&gt;......&lt;/font&gt;" style="rounded=0;whiteSpace=wrap;html=1;" vertex="1" parent="78GMk1-3RHfl2nPPVAb4-48">
          <mxGeometry x="184" y="220" width="34" height="20" as="geometry" />
        </mxCell>
        <mxCell id="78GMk1-3RHfl2nPPVAb4-69" value="&lt;font face=&quot;Comic Sans MS&quot;&gt;......&lt;/font&gt;" style="rounded=0;whiteSpace=wrap;html=1;" vertex="1" parent="78GMk1-3RHfl2nPPVAb4-48">
          <mxGeometry x="60" y="230" width="34" height="20" as="geometry" />
        </mxCell>
        <mxCell id="78GMk1-3RHfl2nPPVAb4-70" value="" style="shape=table;startSize=0;container=1;collapsible=0;childLayout=tableLayout;fontSize=16;fillColor=#FFFFFF;strokeColor=#FFFFFF;fontColor=#FFFFFF;" vertex="1" parent="78GMk1-3RHfl2nPPVAb4-48">
          <mxGeometry x="270" y="30" width="150" height="70" as="geometry" />
        </mxCell>
        <mxCell id="78GMk1-3RHfl2nPPVAb4-71" value="" style="shape=tableRow;horizontal=0;startSize=0;swimlaneHead=0;swimlaneBody=0;strokeColor=#FFFFFF;top=0;left=0;bottom=0;right=0;collapsible=0;dropTarget=0;fillColor=#FFFFFF;points=[[0,0.5],[1,0.5]];portConstraint=eastwest;fontSize=16;fontColor=#FFFFFF;" vertex="1" parent="78GMk1-3RHfl2nPPVAb4-70">
          <mxGeometry width="150" height="23" as="geometry" />
        </mxCell>
        <mxCell id="78GMk1-3RHfl2nPPVAb4-72" value="var" style="shape=partialRectangle;html=1;whiteSpace=wrap;connectable=0;strokeColor=#FFFFFF;overflow=hidden;fillColor=#FFFFFF;top=0;left=0;bottom=0;right=0;pointerEvents=1;fontSize=16;fontFamily=Comic Sans MS;fontColor=#FFFFFF;" vertex="1" parent="78GMk1-3RHfl2nPPVAb4-71">
          <mxGeometry width="75" height="23" as="geometry">
            <mxRectangle width="75" height="23" as="alternateBounds" />
          </mxGeometry>
        </mxCell>
        <mxCell id="78GMk1-3RHfl2nPPVAb4-73" value="" style="shape=partialRectangle;html=1;whiteSpace=wrap;connectable=0;strokeColor=#FFFFFF;overflow=hidden;fillColor=#FFFFFF;top=0;left=0;bottom=0;right=0;pointerEvents=1;fontSize=16;fontColor=#FFFFFF;" vertex="1" parent="78GMk1-3RHfl2nPPVAb4-71">
          <mxGeometry x="75" width="75" height="23" as="geometry">
            <mxRectangle width="75" height="23" as="alternateBounds" />
          </mxGeometry>
        </mxCell>
        <mxCell id="78GMk1-3RHfl2nPPVAb4-74" value="" style="shape=tableRow;horizontal=0;startSize=0;swimlaneHead=0;swimlaneBody=0;strokeColor=#FFFFFF;top=0;left=0;bottom=0;right=0;collapsible=0;dropTarget=0;fillColor=#FFFFFF;points=[[0,0.5],[1,0.5]];portConstraint=eastwest;fontSize=16;fontColor=#FFFFFF;" vertex="1" parent="78GMk1-3RHfl2nPPVAb4-70">
          <mxGeometry y="23" width="150" height="24" as="geometry" />
        </mxCell>
        <mxCell id="78GMk1-3RHfl2nPPVAb4-75" value="" style="shape=partialRectangle;html=1;whiteSpace=wrap;connectable=0;strokeColor=#FFFFFF;overflow=hidden;fillColor=#FFFFFF;top=0;left=0;bottom=0;right=0;pointerEvents=1;fontSize=16;fontColor=#FFFFFF;" vertex="1" parent="78GMk1-3RHfl2nPPVAb4-74">
          <mxGeometry width="75" height="24" as="geometry">
            <mxRectangle width="75" height="24" as="alternateBounds" />
          </mxGeometry>
        </mxCell>
        <mxCell id="78GMk1-3RHfl2nPPVAb4-76" value="" style="shape=partialRectangle;html=1;whiteSpace=wrap;connectable=0;strokeColor=#FFFFFF;overflow=hidden;fillColor=#FFFFFF;top=0;left=0;bottom=0;right=0;pointerEvents=1;fontSize=16;fontColor=#FFFFFF;" vertex="1" parent="78GMk1-3RHfl2nPPVAb4-74">
          <mxGeometry x="75" width="75" height="24" as="geometry">
            <mxRectangle width="75" height="24" as="alternateBounds" />
          </mxGeometry>
        </mxCell>
        <mxCell id="78GMk1-3RHfl2nPPVAb4-77" value="" style="shape=tableRow;horizontal=0;startSize=0;swimlaneHead=0;swimlaneBody=0;strokeColor=#FFFFFF;top=0;left=0;bottom=0;right=0;collapsible=0;dropTarget=0;fillColor=#FFFFFF;points=[[0,0.5],[1,0.5]];portConstraint=eastwest;fontSize=16;fontColor=#FFFFFF;" vertex="1" parent="78GMk1-3RHfl2nPPVAb4-70">
          <mxGeometry y="47" width="150" height="23" as="geometry" />
        </mxCell>
        <mxCell id="78GMk1-3RHfl2nPPVAb4-78" value="" style="shape=partialRectangle;html=1;whiteSpace=wrap;connectable=0;strokeColor=#FFFFFF;overflow=hidden;fillColor=#FFFFFF;top=0;left=0;bottom=0;right=0;pointerEvents=1;fontSize=16;fontColor=#FFFFFF;" vertex="1" parent="78GMk1-3RHfl2nPPVAb4-77">
          <mxGeometry width="75" height="23" as="geometry">
            <mxRectangle width="75" height="23" as="alternateBounds" />
          </mxGeometry>
        </mxCell>
        <mxCell id="78GMk1-3RHfl2nPPVAb4-79" value="" style="shape=partialRectangle;html=1;whiteSpace=wrap;connectable=0;strokeColor=#FFFFFF;overflow=hidden;fillColor=#FFFFFF;top=0;left=0;bottom=0;right=0;pointerEvents=1;fontSize=16;fontColor=#FFFFFF;" vertex="1" parent="78GMk1-3RHfl2nPPVAb4-77">
          <mxGeometry x="75" width="75" height="23" as="geometry">
            <mxRectangle width="75" height="23" as="alternateBounds" />
          </mxGeometry>
        </mxCell>
        <mxCell id="78GMk1-3RHfl2nPPVAb4-80" value="(Abstract) Execution State" style="rounded=0;whiteSpace=wrap;html=1;fontFamily=Comic Sans MS;fillColor=#FFFFFF;strokeColor=#FFFFFF;fontColor=#FFFFFF;" vertex="1" parent="78GMk1-3RHfl2nPPVAb4-48">
          <mxGeometry x="270" width="150" height="30" as="geometry" />
        </mxCell>
        <mxCell id="78GMk1-3RHfl2nPPVAb4-81" value="$$[-\infty, +\infty]$$" style="text;html=1;align=center;verticalAlign=middle;whiteSpace=wrap;rounded=0;fillColor=#FFFFFF;strokeColor=#FFFFFF;fontColor=#FFFFFF;" vertex="1" parent="78GMk1-3RHfl2nPPVAb4-48">
          <mxGeometry x="362" y="32" width="40" height="20" as="geometry" />
        </mxCell>
        <mxCell id="78GMk1-3RHfl2nPPVAb4-82" value="&lt;font face=&quot;Comic Sans MS&quot;&gt;...&lt;/font&gt;" style="text;html=1;align=center;verticalAlign=middle;whiteSpace=wrap;rounded=0;fillColor=#FFFFFF;strokeColor=#FFFFFF;fontColor=#FFFFFF;" vertex="1" parent="78GMk1-3RHfl2nPPVAb4-48">
          <mxGeometry x="372" y="56" width="20" height="20" as="geometry" />
        </mxCell>
        <mxCell id="78GMk1-3RHfl2nPPVAb4-83" value="&lt;font face=&quot;Comic Sans MS&quot;&gt;...&lt;/font&gt;" style="text;html=1;align=center;verticalAlign=middle;whiteSpace=wrap;rounded=0;fillColor=#FFFFFF;strokeColor=#FFFFFF;fontColor=#FFFFFF;" vertex="1" parent="78GMk1-3RHfl2nPPVAb4-48">
          <mxGeometry x="300" y="55" width="20" height="20" as="geometry" />
        </mxCell>
        <mxCell id="78GMk1-3RHfl2nPPVAb4-84" value="&lt;font face=&quot;Comic Sans MS&quot;&gt;...&lt;/font&gt;" style="text;html=1;align=center;verticalAlign=middle;whiteSpace=wrap;rounded=0;fillColor=#FFFFFF;strokeColor=#FFFFFF;fontColor=#FFFFFF;" vertex="1" parent="78GMk1-3RHfl2nPPVAb4-48">
          <mxGeometry x="372" y="77" width="20" height="20" as="geometry" />
        </mxCell>
        <mxCell id="78GMk1-3RHfl2nPPVAb4-85" value="&lt;font face=&quot;Comic Sans MS&quot;&gt;...&lt;/font&gt;" style="text;html=1;align=center;verticalAlign=middle;whiteSpace=wrap;rounded=0;fillColor=#FFFFFF;strokeColor=#FFFFFF;fontColor=#FFFFFF;" vertex="1" parent="78GMk1-3RHfl2nPPVAb4-48">
          <mxGeometry x="300" y="76" width="20" height="20" as="geometry" />
        </mxCell>
        <mxCell id="78GMk1-3RHfl2nPPVAb4-86" value="" style="endArrow=classic;html=1;rounded=0;edgeStyle=orthogonalEdgeStyle;curved=1;strokeColor=#A1A1A1;entryX=0.668;entryY=-0.179;entryDx=0;entryDy=0;entryPerimeter=0;" edge="1" parent="78GMk1-3RHfl2nPPVAb4-48">
          <mxGeometry width="50" height="50" relative="1" as="geometry">
            <mxPoint x="131.98" y="20" as="sourcePoint" />
            <mxPoint x="70.7120000000001" y="226.41999999999996" as="targetPoint" />
            <Array as="points">
              <mxPoint x="132" y="135" />
              <mxPoint x="162" y="135" />
              <mxPoint x="162" y="180" />
              <mxPoint x="132" y="180" />
              <mxPoint x="132" y="210" />
              <mxPoint x="71" y="210" />
            </Array>
          </mxGeometry>
        </mxCell>
        <mxCell id="78GMk1-3RHfl2nPPVAb4-87" value="" style="endArrow=classic;html=1;rounded=0;edgeStyle=orthogonalEdgeStyle;curved=1;strokeColor=#A1A1A1;entryX=0.75;entryY=0;entryDx=0;entryDy=0;" edge="1" parent="78GMk1-3RHfl2nPPVAb4-48">
          <mxGeometry width="50" height="50" relative="1" as="geometry">
            <mxPoint x="145.98999999999998" y="19" as="sourcePoint" />
            <mxPoint x="207.5" y="219" as="targetPoint" />
            <Array as="points">
              <mxPoint x="146" y="134" />
              <mxPoint x="176" y="134" />
              <mxPoint x="176" y="179" />
              <mxPoint x="168" y="179" />
              <mxPoint x="168" y="199" />
              <mxPoint x="208" y="199" />
            </Array>
          </mxGeometry>
        </mxCell>
        <mxCell id="78GMk1-3RHfl2nPPVAb4-88" value="$$\phi_2\wedge\neg\phi_1$$" style="text;html=1;align=center;verticalAlign=middle;whiteSpace=wrap;rounded=0;fontColor=#FFFFFF;" vertex="1" parent="78GMk1-3RHfl2nPPVAb4-48">
          <mxGeometry x="44" y="180" width="60" height="30" as="geometry" />
        </mxCell>
        <mxCell id="78GMk1-3RHfl2nPPVAb4-89" value="Infeasible" style="text;html=1;align=left;verticalAlign=middle;whiteSpace=wrap;rounded=0;fontFamily=Comic Sans MS;fontColor=#FFFFFF;" vertex="1" parent="78GMk1-3RHfl2nPPVAb4-48">
          <mxGeometry y="200" width="60" height="30" as="geometry" />
        </mxCell>
        <mxCell id="78GMk1-3RHfl2nPPVAb4-90" value="&lt;font&gt;Feasible&lt;/font&gt;" style="text;html=1;align=left;verticalAlign=middle;whiteSpace=wrap;rounded=0;fontFamily=Comic Sans MS;fontColor=#FFFFFF;" vertex="1" parent="78GMk1-3RHfl2nPPVAb4-48">
          <mxGeometry x="220" y="190" width="60" height="30" as="geometry" />
        </mxCell>
        <mxCell id="78GMk1-3RHfl2nPPVAb4-91" value="$$\neg\phi_2\wedge\neg\phi_1$$" style="text;html=1;align=center;verticalAlign=middle;whiteSpace=wrap;rounded=0;fontColor=#FFFFFF;" vertex="1" parent="78GMk1-3RHfl2nPPVAb4-48">
          <mxGeometry x="198" y="175" width="60" height="30" as="geometry" />
        </mxCell>
        <mxCell id="78GMk1-3RHfl2nPPVAb4-92" value="" style="shape=flexArrow;endArrow=classic;html=1;rounded=0;strokeColor=#FFFFFF;" edge="1" parent="78GMk1-3RHfl2nPPVAb4-48">
          <mxGeometry width="50" height="50" relative="1" as="geometry">
            <mxPoint x="350" y="110" as="sourcePoint" />
            <mxPoint x="260" y="170" as="targetPoint" />
          </mxGeometry>
        </mxCell>
        <mxCell id="78GMk1-3RHfl2nPPVAb4-93" value="&lt;font style=&quot;font-size: 14px;&quot;&gt;Check path feasibility based on &lt;b&gt;execution state&lt;/b&gt;&lt;/font&gt;" style="text;html=1;align=center;verticalAlign=middle;whiteSpace=wrap;rounded=0;fontStyle=0;fillColor=#FFFFFF;strokeColor=#FFFFFF;fontFamily=Garamond;shadow=0;textShadow=0;fontColor=#FFFFFF;" vertex="1" parent="78GMk1-3RHfl2nPPVAb4-48">
          <mxGeometry x="296.43" y="190" width="173.57" height="38" as="geometry" />
        </mxCell>
        <mxCell id="78GMk1-3RHfl2nPPVAb4-94" value="" style="group" vertex="1" connectable="0" parent="1">
          <mxGeometry y="-720" width="470" height="288" as="geometry" />
        </mxCell>
        <mxCell id="78GMk1-3RHfl2nPPVAb4-95" value="&lt;span style=&quot;font-size: 14px;&quot;&gt;&lt;b&gt;Path-sensitive solver&lt;/b&gt;&lt;/span&gt;" style="text;html=1;align=center;verticalAlign=middle;whiteSpace=wrap;rounded=0;fontStyle=0;fillColor=#FFFFFF;strokeColor=#FFFFFF;fontFamily=Garamond;shadow=0;textShadow=0;fontColor=#FFFFFF;" vertex="1" parent="78GMk1-3RHfl2nPPVAb4-94">
          <mxGeometry x="78.22" y="263" width="123.57" height="25" as="geometry" />
        </mxCell>
        <mxCell id="78GMk1-3RHfl2nPPVAb4-96" style="rounded=0;orthogonalLoop=1;jettySize=auto;html=1;exitX=0;exitY=1;exitDx=0;exitDy=0;entryX=0.5;entryY=0;entryDx=0;entryDy=0;" edge="1" parent="78GMk1-3RHfl2nPPVAb4-94" source="78GMk1-3RHfl2nPPVAb4-98" target="78GMk1-3RHfl2nPPVAb4-106">
          <mxGeometry relative="1" as="geometry" />
        </mxCell>
        <mxCell id="78GMk1-3RHfl2nPPVAb4-97" style="rounded=0;orthogonalLoop=1;jettySize=auto;html=1;exitX=1;exitY=1;exitDx=0;exitDy=0;entryX=0;entryY=0;entryDx=0;entryDy=0;" edge="1" parent="78GMk1-3RHfl2nPPVAb4-94" source="78GMk1-3RHfl2nPPVAb4-98" target="78GMk1-3RHfl2nPPVAb4-108">
          <mxGeometry relative="1" as="geometry" />
        </mxCell>
        <mxCell id="78GMk1-3RHfl2nPPVAb4-98" value="&lt;font face=&quot;Comic Sans MS&quot;&gt;if(&amp;nbsp; &amp;nbsp; )&lt;/font&gt;" style="ellipse;whiteSpace=wrap;html=1;" vertex="1" parent="78GMk1-3RHfl2nPPVAb4-94">
          <mxGeometry x="104" y="110" width="60" height="30" as="geometry" />
        </mxCell>
        <mxCell id="78GMk1-3RHfl2nPPVAb4-99" value="$$\phi_1$$" style="text;html=1;align=center;verticalAlign=middle;whiteSpace=wrap;rounded=0;" vertex="1" parent="78GMk1-3RHfl2nPPVAb4-94">
          <mxGeometry x="130" y="115" width="20" height="20" as="geometry" />
        </mxCell>
        <mxCell id="78GMk1-3RHfl2nPPVAb4-100" style="edgeStyle=orthogonalEdgeStyle;rounded=0;orthogonalLoop=1;jettySize=auto;html=1;exitX=0.5;exitY=1;exitDx=0;exitDy=0;entryX=0.5;entryY=0;entryDx=0;entryDy=0;" edge="1" parent="78GMk1-3RHfl2nPPVAb4-94" source="78GMk1-3RHfl2nPPVAb4-101" target="78GMk1-3RHfl2nPPVAb4-103">
          <mxGeometry relative="1" as="geometry" />
        </mxCell>
        <mxCell id="78GMk1-3RHfl2nPPVAb4-101" value="&lt;font face=&quot;Comic Sans MS&quot;&gt;Entry&lt;/font&gt;" style="rounded=0;whiteSpace=wrap;html=1;" vertex="1" parent="78GMk1-3RHfl2nPPVAb4-94">
          <mxGeometry x="94" width="80" height="20" as="geometry" />
        </mxCell>
        <mxCell id="78GMk1-3RHfl2nPPVAb4-102" style="edgeStyle=orthogonalEdgeStyle;rounded=0;orthogonalLoop=1;jettySize=auto;html=1;exitX=0.5;exitY=1;exitDx=0;exitDy=0;entryX=0.5;entryY=0;entryDx=0;entryDy=0;" edge="1" parent="78GMk1-3RHfl2nPPVAb4-94" source="78GMk1-3RHfl2nPPVAb4-103" target="78GMk1-3RHfl2nPPVAb4-105">
          <mxGeometry relative="1" as="geometry" />
        </mxCell>
        <mxCell id="78GMk1-3RHfl2nPPVAb4-103" value="&lt;font face=&quot;Comic Sans MS&quot;&gt;var := input()&lt;/font&gt;" style="rounded=0;whiteSpace=wrap;html=1;" vertex="1" parent="78GMk1-3RHfl2nPPVAb4-94">
          <mxGeometry x="94" y="40" width="80" height="20" as="geometry" />
        </mxCell>
        <mxCell id="78GMk1-3RHfl2nPPVAb4-104" style="edgeStyle=orthogonalEdgeStyle;rounded=0;orthogonalLoop=1;jettySize=auto;html=1;exitX=0.5;exitY=1;exitDx=0;exitDy=0;entryX=0.5;entryY=0;entryDx=0;entryDy=0;" edge="1" parent="78GMk1-3RHfl2nPPVAb4-94" source="78GMk1-3RHfl2nPPVAb4-105" target="78GMk1-3RHfl2nPPVAb4-98">
          <mxGeometry relative="1" as="geometry" />
        </mxCell>
        <mxCell id="78GMk1-3RHfl2nPPVAb4-105" value="&lt;font face=&quot;Comic Sans MS&quot;&gt;......&lt;/font&gt;" style="rounded=0;whiteSpace=wrap;html=1;" vertex="1" parent="78GMk1-3RHfl2nPPVAb4-94">
          <mxGeometry x="94" y="76" width="80" height="20" as="geometry" />
        </mxCell>
        <mxCell id="78GMk1-3RHfl2nPPVAb4-106" value="&lt;font face=&quot;Comic Sans MS&quot;&gt;......&lt;/font&gt;" style="rounded=0;whiteSpace=wrap;html=1;" vertex="1" parent="78GMk1-3RHfl2nPPVAb4-94">
          <mxGeometry x="50" y="150" width="34" height="20" as="geometry" />
        </mxCell>
        <mxCell id="78GMk1-3RHfl2nPPVAb4-107" style="rounded=0;orthogonalLoop=1;jettySize=auto;html=1;exitX=0;exitY=1;exitDx=0;exitDy=0;entryX=1;entryY=0;entryDx=0;entryDy=0;" edge="1" parent="78GMk1-3RHfl2nPPVAb4-94" source="78GMk1-3RHfl2nPPVAb4-108" target="78GMk1-3RHfl2nPPVAb4-111">
          <mxGeometry relative="1" as="geometry" />
        </mxCell>
        <mxCell id="78GMk1-3RHfl2nPPVAb4-108" value="&lt;font face=&quot;Comic Sans MS&quot;&gt;......&lt;/font&gt;" style="rounded=0;whiteSpace=wrap;html=1;" vertex="1" parent="78GMk1-3RHfl2nPPVAb4-94">
          <mxGeometry x="164" y="150" width="34" height="20" as="geometry" />
        </mxCell>
        <mxCell id="78GMk1-3RHfl2nPPVAb4-109" style="rounded=0;orthogonalLoop=1;jettySize=auto;html=1;exitX=0;exitY=1;exitDx=0;exitDy=0;entryX=0.75;entryY=0;entryDx=0;entryDy=0;" edge="1" parent="78GMk1-3RHfl2nPPVAb4-94" source="78GMk1-3RHfl2nPPVAb4-111" target="78GMk1-3RHfl2nPPVAb4-115">
          <mxGeometry relative="1" as="geometry" />
        </mxCell>
        <mxCell id="78GMk1-3RHfl2nPPVAb4-110" style="rounded=0;orthogonalLoop=1;jettySize=auto;html=1;exitX=1;exitY=1;exitDx=0;exitDy=0;entryX=0;entryY=0;entryDx=0;entryDy=0;" edge="1" parent="78GMk1-3RHfl2nPPVAb4-94" source="78GMk1-3RHfl2nPPVAb4-111" target="78GMk1-3RHfl2nPPVAb4-114">
          <mxGeometry relative="1" as="geometry" />
        </mxCell>
        <mxCell id="78GMk1-3RHfl2nPPVAb4-111" value="&lt;font face=&quot;Comic Sans MS&quot;&gt;if(&amp;nbsp; &amp;nbsp; )&lt;/font&gt;" style="ellipse;whiteSpace=wrap;html=1;" vertex="1" parent="78GMk1-3RHfl2nPPVAb4-94">
          <mxGeometry x="104" y="180" width="60" height="30" as="geometry" />
        </mxCell>
        <mxCell id="78GMk1-3RHfl2nPPVAb4-112" value="$$\phi_2$$" style="text;html=1;align=center;verticalAlign=middle;whiteSpace=wrap;rounded=0;" vertex="1" parent="78GMk1-3RHfl2nPPVAb4-94">
          <mxGeometry x="130" y="185" width="20" height="20" as="geometry" />
        </mxCell>
        <mxCell id="78GMk1-3RHfl2nPPVAb4-113" style="rounded=0;orthogonalLoop=1;jettySize=auto;html=1;entryX=0;entryY=0;entryDx=0;entryDy=0;" edge="1" parent="78GMk1-3RHfl2nPPVAb4-94" source="78GMk1-3RHfl2nPPVAb4-106" target="78GMk1-3RHfl2nPPVAb4-111">
          <mxGeometry relative="1" as="geometry" />
        </mxCell>
        <mxCell id="78GMk1-3RHfl2nPPVAb4-114" value="&lt;font face=&quot;Comic Sans MS&quot;&gt;......&lt;/font&gt;" style="rounded=0;whiteSpace=wrap;html=1;" vertex="1" parent="78GMk1-3RHfl2nPPVAb4-94">
          <mxGeometry x="184" y="220" width="34" height="20" as="geometry" />
        </mxCell>
        <mxCell id="78GMk1-3RHfl2nPPVAb4-115" value="&lt;font face=&quot;Comic Sans MS&quot;&gt;......&lt;/font&gt;" style="rounded=0;whiteSpace=wrap;html=1;" vertex="1" parent="78GMk1-3RHfl2nPPVAb4-94">
          <mxGeometry x="60" y="230" width="34" height="20" as="geometry" />
        </mxCell>
        <mxCell id="78GMk1-3RHfl2nPPVAb4-116" value="" style="shape=table;startSize=0;container=1;collapsible=0;childLayout=tableLayout;fontSize=16;fillColor=#FFFFFF;strokeColor=#FFFFFF;fontColor=#FFFFFF;" vertex="1" parent="78GMk1-3RHfl2nPPVAb4-94">
          <mxGeometry x="270" y="30" width="150" height="70" as="geometry" />
        </mxCell>
        <mxCell id="78GMk1-3RHfl2nPPVAb4-117" value="" style="shape=tableRow;horizontal=0;startSize=0;swimlaneHead=0;swimlaneBody=0;strokeColor=#FFFFFF;top=0;left=0;bottom=0;right=0;collapsible=0;dropTarget=0;fillColor=#FFFFFF;points=[[0,0.5],[1,0.5]];portConstraint=eastwest;fontSize=16;fontColor=#FFFFFF;" vertex="1" parent="78GMk1-3RHfl2nPPVAb4-116">
          <mxGeometry width="150" height="23" as="geometry" />
        </mxCell>
        <mxCell id="78GMk1-3RHfl2nPPVAb4-118" value="var" style="shape=partialRectangle;html=1;whiteSpace=wrap;connectable=0;strokeColor=#FFFFFF;overflow=hidden;fillColor=#FFFFFF;top=0;left=0;bottom=0;right=0;pointerEvents=1;fontSize=16;fontFamily=Comic Sans MS;fontColor=#FFFFFF;" vertex="1" parent="78GMk1-3RHfl2nPPVAb4-117">
          <mxGeometry width="75" height="23" as="geometry">
            <mxRectangle width="75" height="23" as="alternateBounds" />
          </mxGeometry>
        </mxCell>
        <mxCell id="78GMk1-3RHfl2nPPVAb4-119" value="" style="shape=partialRectangle;html=1;whiteSpace=wrap;connectable=0;strokeColor=#FFFFFF;overflow=hidden;fillColor=#FFFFFF;top=0;left=0;bottom=0;right=0;pointerEvents=1;fontSize=16;fontColor=#FFFFFF;" vertex="1" parent="78GMk1-3RHfl2nPPVAb4-117">
          <mxGeometry x="75" width="75" height="23" as="geometry">
            <mxRectangle width="75" height="23" as="alternateBounds" />
          </mxGeometry>
        </mxCell>
        <mxCell id="78GMk1-3RHfl2nPPVAb4-120" value="" style="shape=tableRow;horizontal=0;startSize=0;swimlaneHead=0;swimlaneBody=0;strokeColor=#FFFFFF;top=0;left=0;bottom=0;right=0;collapsible=0;dropTarget=0;fillColor=#FFFFFF;points=[[0,0.5],[1,0.5]];portConstraint=eastwest;fontSize=16;fontColor=#FFFFFF;" vertex="1" parent="78GMk1-3RHfl2nPPVAb4-116">
          <mxGeometry y="23" width="150" height="24" as="geometry" />
        </mxCell>
        <mxCell id="78GMk1-3RHfl2nPPVAb4-121" value="" style="shape=partialRectangle;html=1;whiteSpace=wrap;connectable=0;strokeColor=#FFFFFF;overflow=hidden;fillColor=#FFFFFF;top=0;left=0;bottom=0;right=0;pointerEvents=1;fontSize=16;fontColor=#FFFFFF;" vertex="1" parent="78GMk1-3RHfl2nPPVAb4-120">
          <mxGeometry width="75" height="24" as="geometry">
            <mxRectangle width="75" height="24" as="alternateBounds" />
          </mxGeometry>
        </mxCell>
        <mxCell id="78GMk1-3RHfl2nPPVAb4-122" value="" style="shape=partialRectangle;html=1;whiteSpace=wrap;connectable=0;strokeColor=#FFFFFF;overflow=hidden;fillColor=#FFFFFF;top=0;left=0;bottom=0;right=0;pointerEvents=1;fontSize=16;fontColor=#FFFFFF;" vertex="1" parent="78GMk1-3RHfl2nPPVAb4-120">
          <mxGeometry x="75" width="75" height="24" as="geometry">
            <mxRectangle width="75" height="24" as="alternateBounds" />
          </mxGeometry>
        </mxCell>
        <mxCell id="78GMk1-3RHfl2nPPVAb4-123" value="" style="shape=tableRow;horizontal=0;startSize=0;swimlaneHead=0;swimlaneBody=0;strokeColor=#FFFFFF;top=0;left=0;bottom=0;right=0;collapsible=0;dropTarget=0;fillColor=#FFFFFF;points=[[0,0.5],[1,0.5]];portConstraint=eastwest;fontSize=16;fontColor=#FFFFFF;" vertex="1" parent="78GMk1-3RHfl2nPPVAb4-116">
          <mxGeometry y="47" width="150" height="23" as="geometry" />
        </mxCell>
        <mxCell id="78GMk1-3RHfl2nPPVAb4-124" value="" style="shape=partialRectangle;html=1;whiteSpace=wrap;connectable=0;strokeColor=#FFFFFF;overflow=hidden;fillColor=#FFFFFF;top=0;left=0;bottom=0;right=0;pointerEvents=1;fontSize=16;fontColor=#FFFFFF;" vertex="1" parent="78GMk1-3RHfl2nPPVAb4-123">
          <mxGeometry width="75" height="23" as="geometry">
            <mxRectangle width="75" height="23" as="alternateBounds" />
          </mxGeometry>
        </mxCell>
        <mxCell id="78GMk1-3RHfl2nPPVAb4-125" value="" style="shape=partialRectangle;html=1;whiteSpace=wrap;connectable=0;strokeColor=#FFFFFF;overflow=hidden;fillColor=#FFFFFF;top=0;left=0;bottom=0;right=0;pointerEvents=1;fontSize=16;fontColor=#FFFFFF;" vertex="1" parent="78GMk1-3RHfl2nPPVAb4-123">
          <mxGeometry x="75" width="75" height="23" as="geometry">
            <mxRectangle width="75" height="23" as="alternateBounds" />
          </mxGeometry>
        </mxCell>
        <mxCell id="78GMk1-3RHfl2nPPVAb4-126" value="(Abstract) Execution State" style="rounded=0;whiteSpace=wrap;html=1;fontFamily=Comic Sans MS;fillColor=#FFFFFF;strokeColor=#FFFFFF;fontColor=#FFFFFF;" vertex="1" parent="78GMk1-3RHfl2nPPVAb4-94">
          <mxGeometry x="270" width="150" height="30" as="geometry" />
        </mxCell>
        <mxCell id="78GMk1-3RHfl2nPPVAb4-127" value="$$[-\infty, +\infty]$$" style="text;html=1;align=center;verticalAlign=middle;whiteSpace=wrap;rounded=0;fillColor=#FFFFFF;strokeColor=#FFFFFF;fontColor=#FFFFFF;" vertex="1" parent="78GMk1-3RHfl2nPPVAb4-94">
          <mxGeometry x="362" y="32" width="40" height="20" as="geometry" />
        </mxCell>
        <mxCell id="78GMk1-3RHfl2nPPVAb4-128" value="&lt;font face=&quot;Comic Sans MS&quot;&gt;...&lt;/font&gt;" style="text;html=1;align=center;verticalAlign=middle;whiteSpace=wrap;rounded=0;fillColor=#FFFFFF;strokeColor=#FFFFFF;fontColor=#FFFFFF;" vertex="1" parent="78GMk1-3RHfl2nPPVAb4-94">
          <mxGeometry x="372" y="56" width="20" height="20" as="geometry" />
        </mxCell>
        <mxCell id="78GMk1-3RHfl2nPPVAb4-129" value="&lt;font face=&quot;Comic Sans MS&quot;&gt;...&lt;/font&gt;" style="text;html=1;align=center;verticalAlign=middle;whiteSpace=wrap;rounded=0;fillColor=#FFFFFF;strokeColor=#FFFFFF;fontColor=#FFFFFF;" vertex="1" parent="78GMk1-3RHfl2nPPVAb4-94">
          <mxGeometry x="300" y="55" width="20" height="20" as="geometry" />
        </mxCell>
        <mxCell id="78GMk1-3RHfl2nPPVAb4-130" value="&lt;font face=&quot;Comic Sans MS&quot;&gt;...&lt;/font&gt;" style="text;html=1;align=center;verticalAlign=middle;whiteSpace=wrap;rounded=0;fillColor=#FFFFFF;strokeColor=#FFFFFF;fontColor=#FFFFFF;" vertex="1" parent="78GMk1-3RHfl2nPPVAb4-94">
          <mxGeometry x="372" y="77" width="20" height="20" as="geometry" />
        </mxCell>
        <mxCell id="78GMk1-3RHfl2nPPVAb4-131" value="&lt;font face=&quot;Comic Sans MS&quot;&gt;...&lt;/font&gt;" style="text;html=1;align=center;verticalAlign=middle;whiteSpace=wrap;rounded=0;fillColor=#FFFFFF;strokeColor=#FFFFFF;fontColor=#FFFFFF;" vertex="1" parent="78GMk1-3RHfl2nPPVAb4-94">
          <mxGeometry x="300" y="76" width="20" height="20" as="geometry" />
        </mxCell>
        <mxCell id="78GMk1-3RHfl2nPPVAb4-132" value="$$\phi_2\wedge\neg\phi_1$$" style="text;html=1;align=center;verticalAlign=middle;whiteSpace=wrap;rounded=0;fontColor=#FFFFFF;" vertex="1" parent="78GMk1-3RHfl2nPPVAb4-94">
          <mxGeometry x="44" y="180" width="60" height="30" as="geometry" />
        </mxCell>
        <mxCell id="78GMk1-3RHfl2nPPVAb4-133" value="Infeasible" style="text;html=1;align=left;verticalAlign=middle;whiteSpace=wrap;rounded=0;fontFamily=Comic Sans MS;fontColor=#FFFFFF;" vertex="1" parent="78GMk1-3RHfl2nPPVAb4-94">
          <mxGeometry y="200" width="60" height="30" as="geometry" />
        </mxCell>
        <mxCell id="78GMk1-3RHfl2nPPVAb4-134" value="&lt;font&gt;Feasible&lt;/font&gt;" style="text;html=1;align=left;verticalAlign=middle;whiteSpace=wrap;rounded=0;fontFamily=Comic Sans MS;fontColor=#FFFFFF;" vertex="1" parent="78GMk1-3RHfl2nPPVAb4-94">
          <mxGeometry x="220" y="190" width="60" height="30" as="geometry" />
        </mxCell>
        <mxCell id="78GMk1-3RHfl2nPPVAb4-135" value="$$\neg\phi_2\wedge\neg\phi_1$$" style="text;html=1;align=center;verticalAlign=middle;whiteSpace=wrap;rounded=0;fontColor=#FFFFFF;" vertex="1" parent="78GMk1-3RHfl2nPPVAb4-94">
          <mxGeometry x="198" y="175" width="60" height="30" as="geometry" />
        </mxCell>
        <mxCell id="78GMk1-3RHfl2nPPVAb4-136" value="" style="shape=flexArrow;endArrow=classic;html=1;rounded=0;strokeColor=#FFFFFF;" edge="1" parent="78GMk1-3RHfl2nPPVAb4-94">
          <mxGeometry width="50" height="50" relative="1" as="geometry">
            <mxPoint x="350" y="110" as="sourcePoint" />
            <mxPoint x="260" y="170" as="targetPoint" />
          </mxGeometry>
        </mxCell>
        <mxCell id="78GMk1-3RHfl2nPPVAb4-137" value="&lt;font style=&quot;font-size: 14px;&quot;&gt;Check path feasibility based on &lt;b&gt;execution state&lt;/b&gt;&lt;/font&gt;" style="text;html=1;align=center;verticalAlign=middle;whiteSpace=wrap;rounded=0;fontStyle=0;fillColor=#FFFFFF;strokeColor=#FFFFFF;fontFamily=Garamond;shadow=0;textShadow=0;fontColor=#FFFFFF;" vertex="1" parent="78GMk1-3RHfl2nPPVAb4-94">
          <mxGeometry x="296.43" y="190" width="173.57" height="38" as="geometry" />
        </mxCell>
        <mxCell id="78GMk1-3RHfl2nPPVAb4-138" value="" style="group" vertex="1" connectable="0" parent="1">
          <mxGeometry x="10" y="700" width="470" height="288" as="geometry" />
        </mxCell>
        <mxCell id="78GMk1-3RHfl2nPPVAb4-139" value="&lt;span style=&quot;font-size: 14px;&quot;&gt;Path-sensitive solver&lt;/span&gt;" style="text;html=1;align=center;verticalAlign=middle;whiteSpace=wrap;rounded=0;fontStyle=0;fillColor=#f8cecc;strokeColor=#b85450;fontFamily=Comic Sans MS;shadow=0;textShadow=0;" vertex="1" parent="78GMk1-3RHfl2nPPVAb4-138">
          <mxGeometry x="78.22" y="263" width="140" height="25" as="geometry" />
        </mxCell>
        <mxCell id="78GMk1-3RHfl2nPPVAb4-140" style="rounded=0;orthogonalLoop=1;jettySize=auto;html=1;exitX=0;exitY=1;exitDx=0;exitDy=0;entryX=0.5;entryY=0;entryDx=0;entryDy=0;" edge="1" parent="78GMk1-3RHfl2nPPVAb4-138" source="78GMk1-3RHfl2nPPVAb4-142" target="78GMk1-3RHfl2nPPVAb4-150">
          <mxGeometry relative="1" as="geometry" />
        </mxCell>
        <mxCell id="78GMk1-3RHfl2nPPVAb4-141" style="rounded=0;orthogonalLoop=1;jettySize=auto;html=1;exitX=1;exitY=1;exitDx=0;exitDy=0;entryX=0;entryY=0;entryDx=0;entryDy=0;" edge="1" parent="78GMk1-3RHfl2nPPVAb4-138" source="78GMk1-3RHfl2nPPVAb4-142" target="78GMk1-3RHfl2nPPVAb4-152">
          <mxGeometry relative="1" as="geometry" />
        </mxCell>
        <mxCell id="78GMk1-3RHfl2nPPVAb4-142" value="&lt;font face=&quot;Comic Sans MS&quot;&gt;if(&amp;nbsp; &amp;nbsp; )&lt;/font&gt;" style="ellipse;whiteSpace=wrap;html=1;" vertex="1" parent="78GMk1-3RHfl2nPPVAb4-138">
          <mxGeometry x="104" y="110" width="60" height="30" as="geometry" />
        </mxCell>
        <mxCell id="78GMk1-3RHfl2nPPVAb4-143" value="$$\phi_1$$" style="text;html=1;align=center;verticalAlign=middle;whiteSpace=wrap;rounded=0;" vertex="1" parent="78GMk1-3RHfl2nPPVAb4-138">
          <mxGeometry x="130" y="115" width="20" height="20" as="geometry" />
        </mxCell>
        <mxCell id="78GMk1-3RHfl2nPPVAb4-144" style="edgeStyle=orthogonalEdgeStyle;rounded=0;orthogonalLoop=1;jettySize=auto;html=1;exitX=0.5;exitY=1;exitDx=0;exitDy=0;entryX=0.5;entryY=0;entryDx=0;entryDy=0;" edge="1" parent="78GMk1-3RHfl2nPPVAb4-138" source="78GMk1-3RHfl2nPPVAb4-145" target="78GMk1-3RHfl2nPPVAb4-147">
          <mxGeometry relative="1" as="geometry" />
        </mxCell>
        <mxCell id="78GMk1-3RHfl2nPPVAb4-145" value="&lt;font face=&quot;Comic Sans MS&quot;&gt;Entry&lt;/font&gt;" style="rounded=0;whiteSpace=wrap;html=1;" vertex="1" parent="78GMk1-3RHfl2nPPVAb4-138">
          <mxGeometry x="94" width="80" height="20" as="geometry" />
        </mxCell>
        <mxCell id="78GMk1-3RHfl2nPPVAb4-146" style="edgeStyle=orthogonalEdgeStyle;rounded=0;orthogonalLoop=1;jettySize=auto;html=1;exitX=0.5;exitY=1;exitDx=0;exitDy=0;entryX=0.5;entryY=0;entryDx=0;entryDy=0;" edge="1" parent="78GMk1-3RHfl2nPPVAb4-138" source="78GMk1-3RHfl2nPPVAb4-147" target="78GMk1-3RHfl2nPPVAb4-149">
          <mxGeometry relative="1" as="geometry" />
        </mxCell>
        <mxCell id="78GMk1-3RHfl2nPPVAb4-147" value="&lt;font face=&quot;Comic Sans MS&quot;&gt;var := input()&lt;/font&gt;" style="rounded=0;whiteSpace=wrap;html=1;" vertex="1" parent="78GMk1-3RHfl2nPPVAb4-138">
          <mxGeometry x="94" y="40" width="80" height="20" as="geometry" />
        </mxCell>
        <mxCell id="78GMk1-3RHfl2nPPVAb4-148" style="edgeStyle=orthogonalEdgeStyle;rounded=0;orthogonalLoop=1;jettySize=auto;html=1;exitX=0.5;exitY=1;exitDx=0;exitDy=0;entryX=0.5;entryY=0;entryDx=0;entryDy=0;" edge="1" parent="78GMk1-3RHfl2nPPVAb4-138" source="78GMk1-3RHfl2nPPVAb4-149" target="78GMk1-3RHfl2nPPVAb4-142">
          <mxGeometry relative="1" as="geometry" />
        </mxCell>
        <mxCell id="78GMk1-3RHfl2nPPVAb4-149" value="&lt;font face=&quot;Comic Sans MS&quot;&gt;......&lt;/font&gt;" style="rounded=0;whiteSpace=wrap;html=1;" vertex="1" parent="78GMk1-3RHfl2nPPVAb4-138">
          <mxGeometry x="94" y="76" width="80" height="20" as="geometry" />
        </mxCell>
        <mxCell id="78GMk1-3RHfl2nPPVAb4-150" value="&lt;font face=&quot;Comic Sans MS&quot;&gt;......&lt;/font&gt;" style="rounded=0;whiteSpace=wrap;html=1;" vertex="1" parent="78GMk1-3RHfl2nPPVAb4-138">
          <mxGeometry x="50" y="150" width="34" height="20" as="geometry" />
        </mxCell>
        <mxCell id="78GMk1-3RHfl2nPPVAb4-151" style="rounded=0;orthogonalLoop=1;jettySize=auto;html=1;exitX=0;exitY=1;exitDx=0;exitDy=0;entryX=1;entryY=0;entryDx=0;entryDy=0;" edge="1" parent="78GMk1-3RHfl2nPPVAb4-138" source="78GMk1-3RHfl2nPPVAb4-152" target="78GMk1-3RHfl2nPPVAb4-155">
          <mxGeometry relative="1" as="geometry" />
        </mxCell>
        <mxCell id="78GMk1-3RHfl2nPPVAb4-152" value="&lt;font face=&quot;Comic Sans MS&quot;&gt;......&lt;/font&gt;" style="rounded=0;whiteSpace=wrap;html=1;" vertex="1" parent="78GMk1-3RHfl2nPPVAb4-138">
          <mxGeometry x="164" y="150" width="34" height="20" as="geometry" />
        </mxCell>
        <mxCell id="78GMk1-3RHfl2nPPVAb4-153" style="rounded=0;orthogonalLoop=1;jettySize=auto;html=1;exitX=0;exitY=1;exitDx=0;exitDy=0;entryX=0.75;entryY=0;entryDx=0;entryDy=0;" edge="1" parent="78GMk1-3RHfl2nPPVAb4-138" source="78GMk1-3RHfl2nPPVAb4-155" target="78GMk1-3RHfl2nPPVAb4-159">
          <mxGeometry relative="1" as="geometry" />
        </mxCell>
        <mxCell id="78GMk1-3RHfl2nPPVAb4-154" style="rounded=0;orthogonalLoop=1;jettySize=auto;html=1;exitX=1;exitY=1;exitDx=0;exitDy=0;entryX=0;entryY=0;entryDx=0;entryDy=0;" edge="1" parent="78GMk1-3RHfl2nPPVAb4-138" source="78GMk1-3RHfl2nPPVAb4-155" target="78GMk1-3RHfl2nPPVAb4-158">
          <mxGeometry relative="1" as="geometry" />
        </mxCell>
        <mxCell id="78GMk1-3RHfl2nPPVAb4-155" value="&lt;font face=&quot;Comic Sans MS&quot;&gt;if(&amp;nbsp; &amp;nbsp; )&lt;/font&gt;" style="ellipse;whiteSpace=wrap;html=1;" vertex="1" parent="78GMk1-3RHfl2nPPVAb4-138">
          <mxGeometry x="104" y="180" width="60" height="30" as="geometry" />
        </mxCell>
        <mxCell id="78GMk1-3RHfl2nPPVAb4-156" value="$$\phi_2$$" style="text;html=1;align=center;verticalAlign=middle;whiteSpace=wrap;rounded=0;" vertex="1" parent="78GMk1-3RHfl2nPPVAb4-138">
          <mxGeometry x="130" y="185" width="20" height="20" as="geometry" />
        </mxCell>
        <mxCell id="78GMk1-3RHfl2nPPVAb4-157" style="rounded=0;orthogonalLoop=1;jettySize=auto;html=1;entryX=0;entryY=0;entryDx=0;entryDy=0;" edge="1" parent="78GMk1-3RHfl2nPPVAb4-138" source="78GMk1-3RHfl2nPPVAb4-150" target="78GMk1-3RHfl2nPPVAb4-155">
          <mxGeometry relative="1" as="geometry" />
        </mxCell>
        <mxCell id="78GMk1-3RHfl2nPPVAb4-158" value="&lt;font face=&quot;Comic Sans MS&quot;&gt;......&lt;/font&gt;" style="rounded=0;whiteSpace=wrap;html=1;" vertex="1" parent="78GMk1-3RHfl2nPPVAb4-138">
          <mxGeometry x="184" y="220" width="34" height="20" as="geometry" />
        </mxCell>
        <mxCell id="78GMk1-3RHfl2nPPVAb4-159" value="&lt;font face=&quot;Comic Sans MS&quot;&gt;......&lt;/font&gt;" style="rounded=0;whiteSpace=wrap;html=1;" vertex="1" parent="78GMk1-3RHfl2nPPVAb4-138">
          <mxGeometry x="60" y="230" width="34" height="20" as="geometry" />
        </mxCell>
        <mxCell id="78GMk1-3RHfl2nPPVAb4-160" value="" style="shape=table;startSize=0;container=1;collapsible=0;childLayout=tableLayout;fontSize=16;fillColor=#fff2cc;strokeColor=#d6b656;" vertex="1" parent="78GMk1-3RHfl2nPPVAb4-138">
          <mxGeometry x="270" y="30" width="150" height="93" as="geometry" />
        </mxCell>
        <mxCell id="78GMk1-3RHfl2nPPVAb4-161" value="" style="shape=tableRow;horizontal=0;startSize=0;swimlaneHead=0;swimlaneBody=0;strokeColor=inherit;top=0;left=0;bottom=0;right=0;collapsible=0;dropTarget=0;fillColor=none;points=[[0,0.5],[1,0.5]];portConstraint=eastwest;fontSize=16;" vertex="1" parent="78GMk1-3RHfl2nPPVAb4-160">
          <mxGeometry width="150" height="23" as="geometry" />
        </mxCell>
        <mxCell id="78GMk1-3RHfl2nPPVAb4-162" value="var" style="shape=partialRectangle;html=1;whiteSpace=wrap;connectable=0;strokeColor=inherit;overflow=hidden;fillColor=none;top=0;left=0;bottom=0;right=0;pointerEvents=1;fontSize=16;fontFamily=Comic Sans MS;" vertex="1" parent="78GMk1-3RHfl2nPPVAb4-161">
          <mxGeometry width="75" height="23" as="geometry">
            <mxRectangle width="75" height="23" as="alternateBounds" />
          </mxGeometry>
        </mxCell>
        <mxCell id="78GMk1-3RHfl2nPPVAb4-163" value="" style="shape=partialRectangle;html=1;whiteSpace=wrap;connectable=0;strokeColor=inherit;overflow=hidden;fillColor=none;top=0;left=0;bottom=0;right=0;pointerEvents=1;fontSize=16;" vertex="1" parent="78GMk1-3RHfl2nPPVAb4-161">
          <mxGeometry x="75" width="75" height="23" as="geometry">
            <mxRectangle width="75" height="23" as="alternateBounds" />
          </mxGeometry>
        </mxCell>
        <mxCell id="78GMk1-3RHfl2nPPVAb4-164" value="" style="shape=tableRow;horizontal=0;startSize=0;swimlaneHead=0;swimlaneBody=0;strokeColor=inherit;top=0;left=0;bottom=0;right=0;collapsible=0;dropTarget=0;fillColor=none;points=[[0,0.5],[1,0.5]];portConstraint=eastwest;fontSize=16;" vertex="1" parent="78GMk1-3RHfl2nPPVAb4-160">
          <mxGeometry y="23" width="150" height="24" as="geometry" />
        </mxCell>
        <mxCell id="78GMk1-3RHfl2nPPVAb4-165" value="" style="shape=partialRectangle;html=1;whiteSpace=wrap;connectable=0;strokeColor=inherit;overflow=hidden;fillColor=none;top=0;left=0;bottom=0;right=0;pointerEvents=1;fontSize=16;" vertex="1" parent="78GMk1-3RHfl2nPPVAb4-164">
          <mxGeometry width="75" height="24" as="geometry">
            <mxRectangle width="75" height="24" as="alternateBounds" />
          </mxGeometry>
        </mxCell>
        <mxCell id="78GMk1-3RHfl2nPPVAb4-166" value="var &amp;gt; 0" style="shape=partialRectangle;html=1;whiteSpace=wrap;connectable=0;strokeColor=inherit;overflow=hidden;fillColor=none;top=0;left=0;bottom=0;right=0;pointerEvents=1;fontSize=16;fontFamily=Comic Sans MS;" vertex="1" parent="78GMk1-3RHfl2nPPVAb4-164">
          <mxGeometry x="75" width="75" height="24" as="geometry">
            <mxRectangle width="75" height="24" as="alternateBounds" />
          </mxGeometry>
        </mxCell>
        <mxCell id="78GMk1-3RHfl2nPPVAb4-167" value="" style="shape=tableRow;horizontal=0;startSize=0;swimlaneHead=0;swimlaneBody=0;strokeColor=inherit;top=0;left=0;bottom=0;right=0;collapsible=0;dropTarget=0;fillColor=none;points=[[0,0.5],[1,0.5]];portConstraint=eastwest;fontSize=16;" vertex="1" parent="78GMk1-3RHfl2nPPVAb4-160">
          <mxGeometry y="47" width="150" height="23" as="geometry" />
        </mxCell>
        <mxCell id="78GMk1-3RHfl2nPPVAb4-168" value="" style="shape=partialRectangle;html=1;whiteSpace=wrap;connectable=0;strokeColor=inherit;overflow=hidden;fillColor=none;top=0;left=0;bottom=0;right=0;pointerEvents=1;fontSize=16;" vertex="1" parent="78GMk1-3RHfl2nPPVAb4-167">
          <mxGeometry width="75" height="23" as="geometry">
            <mxRectangle width="75" height="23" as="alternateBounds" />
          </mxGeometry>
        </mxCell>
        <mxCell id="78GMk1-3RHfl2nPPVAb4-169" value="&lt;font face=&quot;Comic Sans MS&quot;&gt;var &amp;gt; 5&lt;/font&gt;" style="shape=partialRectangle;html=1;whiteSpace=wrap;connectable=0;strokeColor=inherit;overflow=hidden;fillColor=none;top=0;left=0;bottom=0;right=0;pointerEvents=1;fontSize=16;" vertex="1" parent="78GMk1-3RHfl2nPPVAb4-167">
          <mxGeometry x="75" width="75" height="23" as="geometry">
            <mxRectangle width="75" height="23" as="alternateBounds" />
          </mxGeometry>
        </mxCell>
        <mxCell id="78GMk1-3RHfl2nPPVAb4-170" style="shape=tableRow;horizontal=0;startSize=0;swimlaneHead=0;swimlaneBody=0;strokeColor=inherit;top=0;left=0;bottom=0;right=0;collapsible=0;dropTarget=0;fillColor=none;points=[[0,0.5],[1,0.5]];portConstraint=eastwest;fontSize=16;" vertex="1" parent="78GMk1-3RHfl2nPPVAb4-160">
          <mxGeometry y="70" width="150" height="23" as="geometry" />
        </mxCell>
        <mxCell id="78GMk1-3RHfl2nPPVAb4-171" value="..." style="shape=partialRectangle;html=1;whiteSpace=wrap;connectable=0;strokeColor=inherit;overflow=hidden;fillColor=none;top=0;left=0;bottom=0;right=0;pointerEvents=1;fontSize=16;" vertex="1" parent="78GMk1-3RHfl2nPPVAb4-170">
          <mxGeometry width="75" height="23" as="geometry">
            <mxRectangle width="75" height="23" as="alternateBounds" />
          </mxGeometry>
        </mxCell>
        <mxCell id="78GMk1-3RHfl2nPPVAb4-172" value="..." style="shape=partialRectangle;html=1;whiteSpace=wrap;connectable=0;strokeColor=inherit;overflow=hidden;fillColor=none;top=0;left=0;bottom=0;right=0;pointerEvents=1;fontSize=16;" vertex="1" parent="78GMk1-3RHfl2nPPVAb4-170">
          <mxGeometry x="75" width="75" height="23" as="geometry">
            <mxRectangle width="75" height="23" as="alternateBounds" />
          </mxGeometry>
        </mxCell>
        <mxCell id="78GMk1-3RHfl2nPPVAb4-173" value="(Abstract) Execution State" style="rounded=0;whiteSpace=wrap;html=1;fontFamily=Comic Sans MS;fillColor=#fff2cc;strokeColor=#d6b656;" vertex="1" parent="78GMk1-3RHfl2nPPVAb4-138">
          <mxGeometry x="270" width="150" height="30" as="geometry" />
        </mxCell>
        <mxCell id="78GMk1-3RHfl2nPPVAb4-174" value="$$[-\infty, +\infty]$$" style="text;html=1;align=center;verticalAlign=middle;whiteSpace=wrap;rounded=0;" vertex="1" parent="78GMk1-3RHfl2nPPVAb4-138">
          <mxGeometry x="362" y="32" width="40" height="20" as="geometry" />
        </mxCell>
        <mxCell id="78GMk1-3RHfl2nPPVAb4-175" value="&lt;font face=&quot;Comic Sans MS&quot;&gt;$$\phi_1$$&lt;/font&gt;" style="text;html=1;align=center;verticalAlign=middle;whiteSpace=wrap;rounded=0;" vertex="1" parent="78GMk1-3RHfl2nPPVAb4-138">
          <mxGeometry x="300" y="55" width="20" height="20" as="geometry" />
        </mxCell>
        <mxCell id="78GMk1-3RHfl2nPPVAb4-176" value="&lt;font face=&quot;Comic Sans MS&quot;&gt;$$\phi_2$$&lt;/font&gt;" style="text;html=1;align=center;verticalAlign=middle;whiteSpace=wrap;rounded=0;" vertex="1" parent="78GMk1-3RHfl2nPPVAb4-138">
          <mxGeometry x="300" y="76" width="20" height="20" as="geometry" />
        </mxCell>
        <mxCell id="78GMk1-3RHfl2nPPVAb4-177" value="" style="endArrow=classic;html=1;rounded=0;edgeStyle=orthogonalEdgeStyle;curved=1;strokeColor=#FF0000;entryX=0.668;entryY=-0.179;entryDx=0;entryDy=0;entryPerimeter=0;" edge="1" parent="78GMk1-3RHfl2nPPVAb4-138">
          <mxGeometry width="50" height="50" relative="1" as="geometry">
            <mxPoint x="131.98" y="20" as="sourcePoint" />
            <mxPoint x="70.7120000000001" y="226.41999999999996" as="targetPoint" />
            <Array as="points">
              <mxPoint x="132" y="135" />
              <mxPoint x="162" y="135" />
              <mxPoint x="162" y="180" />
              <mxPoint x="132" y="180" />
              <mxPoint x="132" y="210" />
              <mxPoint x="71" y="210" />
            </Array>
          </mxGeometry>
        </mxCell>
        <mxCell id="78GMk1-3RHfl2nPPVAb4-178" value="" style="endArrow=classic;html=1;rounded=0;edgeStyle=orthogonalEdgeStyle;curved=1;strokeColor=#007F05;entryX=0.75;entryY=0;entryDx=0;entryDy=0;" edge="1" parent="78GMk1-3RHfl2nPPVAb4-138">
          <mxGeometry width="50" height="50" relative="1" as="geometry">
            <mxPoint x="145.98999999999998" y="19" as="sourcePoint" />
            <mxPoint x="207.5" y="219" as="targetPoint" />
            <Array as="points">
              <mxPoint x="146" y="134" />
              <mxPoint x="176" y="134" />
              <mxPoint x="176" y="179" />
              <mxPoint x="168" y="179" />
              <mxPoint x="168" y="199" />
              <mxPoint x="208" y="199" />
            </Array>
          </mxGeometry>
        </mxCell>
        <mxCell id="78GMk1-3RHfl2nPPVAb4-179" value="$$\phi_2\wedge\neg\phi_1$$" style="text;html=1;align=center;verticalAlign=middle;whiteSpace=wrap;rounded=0;" vertex="1" parent="78GMk1-3RHfl2nPPVAb4-138">
          <mxGeometry x="44" y="180" width="60" height="30" as="geometry" />
        </mxCell>
        <mxCell id="78GMk1-3RHfl2nPPVAb4-180" value="Infeasible" style="text;html=1;align=left;verticalAlign=middle;whiteSpace=wrap;rounded=0;fontFamily=Comic Sans MS;fontColor=#FF0000;" vertex="1" parent="78GMk1-3RHfl2nPPVAb4-138">
          <mxGeometry y="200" width="60" height="30" as="geometry" />
        </mxCell>
        <mxCell id="78GMk1-3RHfl2nPPVAb4-181" value="&lt;font color=&quot;#007f05&quot;&gt;Feasible&lt;/font&gt;" style="text;html=1;align=left;verticalAlign=middle;whiteSpace=wrap;rounded=0;fontFamily=Comic Sans MS;fontColor=#FF0000;" vertex="1" parent="78GMk1-3RHfl2nPPVAb4-138">
          <mxGeometry x="212" y="197" width="60" height="30" as="geometry" />
        </mxCell>
        <mxCell id="78GMk1-3RHfl2nPPVAb4-182" value="$$\neg\phi_2\wedge\neg\phi_1$$" style="text;html=1;align=center;verticalAlign=middle;whiteSpace=wrap;rounded=0;" vertex="1" parent="78GMk1-3RHfl2nPPVAb4-138">
          <mxGeometry x="198" y="175" width="60" height="30" as="geometry" />
        </mxCell>
        <mxCell id="78GMk1-3RHfl2nPPVAb4-183" value="" style="shape=flexArrow;endArrow=classic;html=1;rounded=0;" edge="1" parent="78GMk1-3RHfl2nPPVAb4-138">
          <mxGeometry width="50" height="50" relative="1" as="geometry">
            <mxPoint x="350" y="130" as="sourcePoint" />
            <mxPoint x="260" y="190" as="targetPoint" />
          </mxGeometry>
        </mxCell>
        <mxCell id="78GMk1-3RHfl2nPPVAb4-184" value="&lt;font style=&quot;font-size: 14px;&quot;&gt;execution state&lt;/font&gt;" style="text;html=1;align=center;verticalAlign=middle;whiteSpace=wrap;rounded=0;fontStyle=0;fillColor=#f8cecc;strokeColor=#b85450;fontFamily=Comic Sans MS;shadow=0;textShadow=0;" vertex="1" parent="78GMk1-3RHfl2nPPVAb4-138">
          <mxGeometry x="296.43" y="210" width="173.57" height="18" as="geometry" />
        </mxCell>
        <mxCell id="78GMk1-3RHfl2nPPVAb4-185" value="&lt;font style=&quot;font-size: 14px;&quot;&gt;Check path feasibility based on&lt;/font&gt;" style="text;html=1;align=center;verticalAlign=middle;whiteSpace=wrap;rounded=0;fontSize=14;fontFamily=Comic Sans MS;" vertex="1" parent="78GMk1-3RHfl2nPPVAb4-138">
          <mxGeometry x="260" y="185" width="209" height="30" as="geometry" />
        </mxCell>
        <mxCell id="78GMk1-3RHfl2nPPVAb4-186" value="" style="group" vertex="1" connectable="0" parent="1">
          <mxGeometry y="340" width="470" height="288" as="geometry" />
        </mxCell>
        <mxCell id="78GMk1-3RHfl2nPPVAb4-187" value="&lt;span style=&quot;font-size: 14px;&quot;&gt;Path-sensitive solver&lt;/span&gt;" style="text;html=1;align=center;verticalAlign=middle;whiteSpace=wrap;rounded=0;fontStyle=0;fillColor=#f8cecc;strokeColor=#b85450;fontFamily=Comic Sans MS;shadow=0;textShadow=0;" vertex="1" parent="78GMk1-3RHfl2nPPVAb4-186">
          <mxGeometry x="78.22" y="263" width="140" height="25" as="geometry" />
        </mxCell>
        <mxCell id="78GMk1-3RHfl2nPPVAb4-188" style="rounded=0;orthogonalLoop=1;jettySize=auto;html=1;exitX=0;exitY=1;exitDx=0;exitDy=0;entryX=0.5;entryY=0;entryDx=0;entryDy=0;" edge="1" parent="78GMk1-3RHfl2nPPVAb4-186" source="78GMk1-3RHfl2nPPVAb4-190" target="78GMk1-3RHfl2nPPVAb4-198">
          <mxGeometry relative="1" as="geometry" />
        </mxCell>
        <mxCell id="78GMk1-3RHfl2nPPVAb4-189" style="rounded=0;orthogonalLoop=1;jettySize=auto;html=1;exitX=1;exitY=1;exitDx=0;exitDy=0;entryX=0;entryY=0;entryDx=0;entryDy=0;" edge="1" parent="78GMk1-3RHfl2nPPVAb4-186" source="78GMk1-3RHfl2nPPVAb4-190" target="78GMk1-3RHfl2nPPVAb4-200">
          <mxGeometry relative="1" as="geometry" />
        </mxCell>
        <mxCell id="78GMk1-3RHfl2nPPVAb4-190" value="&lt;font face=&quot;Comic Sans MS&quot;&gt;if(&amp;nbsp; &amp;nbsp; )&lt;/font&gt;" style="ellipse;whiteSpace=wrap;html=1;" vertex="1" parent="78GMk1-3RHfl2nPPVAb4-186">
          <mxGeometry x="104" y="110" width="60" height="30" as="geometry" />
        </mxCell>
        <mxCell id="78GMk1-3RHfl2nPPVAb4-191" value="$$\phi_1$$" style="text;html=1;align=center;verticalAlign=middle;whiteSpace=wrap;rounded=0;" vertex="1" parent="78GMk1-3RHfl2nPPVAb4-186">
          <mxGeometry x="130" y="115" width="20" height="20" as="geometry" />
        </mxCell>
        <mxCell id="78GMk1-3RHfl2nPPVAb4-192" style="edgeStyle=orthogonalEdgeStyle;rounded=0;orthogonalLoop=1;jettySize=auto;html=1;exitX=0.5;exitY=1;exitDx=0;exitDy=0;entryX=0.5;entryY=0;entryDx=0;entryDy=0;" edge="1" parent="78GMk1-3RHfl2nPPVAb4-186" source="78GMk1-3RHfl2nPPVAb4-193" target="78GMk1-3RHfl2nPPVAb4-195">
          <mxGeometry relative="1" as="geometry" />
        </mxCell>
        <mxCell id="78GMk1-3RHfl2nPPVAb4-193" value="&lt;font face=&quot;Comic Sans MS&quot;&gt;Entry&lt;/font&gt;" style="rounded=0;whiteSpace=wrap;html=1;" vertex="1" parent="78GMk1-3RHfl2nPPVAb4-186">
          <mxGeometry x="94" width="80" height="20" as="geometry" />
        </mxCell>
        <mxCell id="78GMk1-3RHfl2nPPVAb4-194" style="edgeStyle=orthogonalEdgeStyle;rounded=0;orthogonalLoop=1;jettySize=auto;html=1;exitX=0.5;exitY=1;exitDx=0;exitDy=0;entryX=0.5;entryY=0;entryDx=0;entryDy=0;" edge="1" parent="78GMk1-3RHfl2nPPVAb4-186" source="78GMk1-3RHfl2nPPVAb4-195" target="78GMk1-3RHfl2nPPVAb4-197">
          <mxGeometry relative="1" as="geometry" />
        </mxCell>
        <mxCell id="78GMk1-3RHfl2nPPVAb4-195" value="&lt;font face=&quot;Comic Sans MS&quot;&gt;var := input()&lt;/font&gt;" style="rounded=0;whiteSpace=wrap;html=1;" vertex="1" parent="78GMk1-3RHfl2nPPVAb4-186">
          <mxGeometry x="94" y="40" width="80" height="20" as="geometry" />
        </mxCell>
        <mxCell id="78GMk1-3RHfl2nPPVAb4-196" style="edgeStyle=orthogonalEdgeStyle;rounded=0;orthogonalLoop=1;jettySize=auto;html=1;exitX=0.5;exitY=1;exitDx=0;exitDy=0;entryX=0.5;entryY=0;entryDx=0;entryDy=0;" edge="1" parent="78GMk1-3RHfl2nPPVAb4-186" source="78GMk1-3RHfl2nPPVAb4-197" target="78GMk1-3RHfl2nPPVAb4-190">
          <mxGeometry relative="1" as="geometry" />
        </mxCell>
        <mxCell id="78GMk1-3RHfl2nPPVAb4-197" value="&lt;font face=&quot;Comic Sans MS&quot;&gt;......&lt;/font&gt;" style="rounded=0;whiteSpace=wrap;html=1;" vertex="1" parent="78GMk1-3RHfl2nPPVAb4-186">
          <mxGeometry x="94" y="76" width="80" height="20" as="geometry" />
        </mxCell>
        <mxCell id="78GMk1-3RHfl2nPPVAb4-198" value="&lt;font face=&quot;Comic Sans MS&quot;&gt;......&lt;/font&gt;" style="rounded=0;whiteSpace=wrap;html=1;" vertex="1" parent="78GMk1-3RHfl2nPPVAb4-186">
          <mxGeometry x="50" y="150" width="34" height="20" as="geometry" />
        </mxCell>
        <mxCell id="78GMk1-3RHfl2nPPVAb4-199" style="rounded=0;orthogonalLoop=1;jettySize=auto;html=1;exitX=0;exitY=1;exitDx=0;exitDy=0;entryX=1;entryY=0;entryDx=0;entryDy=0;" edge="1" parent="78GMk1-3RHfl2nPPVAb4-186" source="78GMk1-3RHfl2nPPVAb4-200" target="78GMk1-3RHfl2nPPVAb4-203">
          <mxGeometry relative="1" as="geometry" />
        </mxCell>
        <mxCell id="78GMk1-3RHfl2nPPVAb4-200" value="&lt;font face=&quot;Comic Sans MS&quot;&gt;......&lt;/font&gt;" style="rounded=0;whiteSpace=wrap;html=1;" vertex="1" parent="78GMk1-3RHfl2nPPVAb4-186">
          <mxGeometry x="164" y="150" width="34" height="20" as="geometry" />
        </mxCell>
        <mxCell id="78GMk1-3RHfl2nPPVAb4-201" style="rounded=0;orthogonalLoop=1;jettySize=auto;html=1;exitX=0;exitY=1;exitDx=0;exitDy=0;entryX=0.75;entryY=0;entryDx=0;entryDy=0;" edge="1" parent="78GMk1-3RHfl2nPPVAb4-186" source="78GMk1-3RHfl2nPPVAb4-203" target="78GMk1-3RHfl2nPPVAb4-207">
          <mxGeometry relative="1" as="geometry" />
        </mxCell>
        <mxCell id="78GMk1-3RHfl2nPPVAb4-202" style="rounded=0;orthogonalLoop=1;jettySize=auto;html=1;exitX=1;exitY=1;exitDx=0;exitDy=0;entryX=0;entryY=0;entryDx=0;entryDy=0;" edge="1" parent="78GMk1-3RHfl2nPPVAb4-186" source="78GMk1-3RHfl2nPPVAb4-203" target="78GMk1-3RHfl2nPPVAb4-206">
          <mxGeometry relative="1" as="geometry" />
        </mxCell>
        <mxCell id="78GMk1-3RHfl2nPPVAb4-203" value="&lt;font face=&quot;Comic Sans MS&quot;&gt;if(&amp;nbsp; &amp;nbsp; )&lt;/font&gt;" style="ellipse;whiteSpace=wrap;html=1;" vertex="1" parent="78GMk1-3RHfl2nPPVAb4-186">
          <mxGeometry x="104" y="180" width="60" height="30" as="geometry" />
        </mxCell>
        <mxCell id="78GMk1-3RHfl2nPPVAb4-204" value="$$\phi_2$$" style="text;html=1;align=center;verticalAlign=middle;whiteSpace=wrap;rounded=0;" vertex="1" parent="78GMk1-3RHfl2nPPVAb4-186">
          <mxGeometry x="130" y="185" width="20" height="20" as="geometry" />
        </mxCell>
        <mxCell id="78GMk1-3RHfl2nPPVAb4-205" style="rounded=0;orthogonalLoop=1;jettySize=auto;html=1;entryX=0;entryY=0;entryDx=0;entryDy=0;" edge="1" parent="78GMk1-3RHfl2nPPVAb4-186" source="78GMk1-3RHfl2nPPVAb4-198" target="78GMk1-3RHfl2nPPVAb4-203">
          <mxGeometry relative="1" as="geometry" />
        </mxCell>
        <mxCell id="78GMk1-3RHfl2nPPVAb4-206" value="&lt;font face=&quot;Comic Sans MS&quot;&gt;......&lt;/font&gt;" style="rounded=0;whiteSpace=wrap;html=1;" vertex="1" parent="78GMk1-3RHfl2nPPVAb4-186">
          <mxGeometry x="184" y="220" width="34" height="20" as="geometry" />
        </mxCell>
        <mxCell id="78GMk1-3RHfl2nPPVAb4-207" value="&lt;font face=&quot;Comic Sans MS&quot;&gt;......&lt;/font&gt;" style="rounded=0;whiteSpace=wrap;html=1;" vertex="1" parent="78GMk1-3RHfl2nPPVAb4-186">
          <mxGeometry x="60" y="230" width="34" height="20" as="geometry" />
        </mxCell>
        <mxCell id="78GMk1-3RHfl2nPPVAb4-208" value="" style="shape=table;startSize=0;container=1;collapsible=0;childLayout=tableLayout;fontSize=16;fillColor=#fff2cc;strokeColor=#d6b656;" vertex="1" parent="78GMk1-3RHfl2nPPVAb4-186">
          <mxGeometry x="270" y="30" width="150" height="93" as="geometry" />
        </mxCell>
        <mxCell id="78GMk1-3RHfl2nPPVAb4-209" value="" style="shape=tableRow;horizontal=0;startSize=0;swimlaneHead=0;swimlaneBody=0;strokeColor=inherit;top=0;left=0;bottom=0;right=0;collapsible=0;dropTarget=0;fillColor=none;points=[[0,0.5],[1,0.5]];portConstraint=eastwest;fontSize=16;" vertex="1" parent="78GMk1-3RHfl2nPPVAb4-208">
          <mxGeometry width="150" height="23" as="geometry" />
        </mxCell>
        <mxCell id="78GMk1-3RHfl2nPPVAb4-210" value="var" style="shape=partialRectangle;html=1;whiteSpace=wrap;connectable=0;strokeColor=inherit;overflow=hidden;fillColor=none;top=0;left=0;bottom=0;right=0;pointerEvents=1;fontSize=16;fontFamily=Comic Sans MS;" vertex="1" parent="78GMk1-3RHfl2nPPVAb4-209">
          <mxGeometry width="75" height="23" as="geometry">
            <mxRectangle width="75" height="23" as="alternateBounds" />
          </mxGeometry>
        </mxCell>
        <mxCell id="78GMk1-3RHfl2nPPVAb4-211" value="" style="shape=partialRectangle;html=1;whiteSpace=wrap;connectable=0;strokeColor=inherit;overflow=hidden;fillColor=none;top=0;left=0;bottom=0;right=0;pointerEvents=1;fontSize=16;" vertex="1" parent="78GMk1-3RHfl2nPPVAb4-209">
          <mxGeometry x="75" width="75" height="23" as="geometry">
            <mxRectangle width="75" height="23" as="alternateBounds" />
          </mxGeometry>
        </mxCell>
        <mxCell id="78GMk1-3RHfl2nPPVAb4-212" value="" style="shape=tableRow;horizontal=0;startSize=0;swimlaneHead=0;swimlaneBody=0;strokeColor=inherit;top=0;left=0;bottom=0;right=0;collapsible=0;dropTarget=0;fillColor=none;points=[[0,0.5],[1,0.5]];portConstraint=eastwest;fontSize=16;" vertex="1" parent="78GMk1-3RHfl2nPPVAb4-208">
          <mxGeometry y="23" width="150" height="24" as="geometry" />
        </mxCell>
        <mxCell id="78GMk1-3RHfl2nPPVAb4-213" value="" style="shape=partialRectangle;html=1;whiteSpace=wrap;connectable=0;strokeColor=inherit;overflow=hidden;fillColor=none;top=0;left=0;bottom=0;right=0;pointerEvents=1;fontSize=16;" vertex="1" parent="78GMk1-3RHfl2nPPVAb4-212">
          <mxGeometry width="75" height="24" as="geometry">
            <mxRectangle width="75" height="24" as="alternateBounds" />
          </mxGeometry>
        </mxCell>
        <mxCell id="78GMk1-3RHfl2nPPVAb4-214" value="&lt;font face=&quot;Comic Sans MS&quot;&gt;var &amp;gt; 0&lt;/font&gt;" style="shape=partialRectangle;html=1;whiteSpace=wrap;connectable=0;strokeColor=inherit;overflow=hidden;fillColor=none;top=0;left=0;bottom=0;right=0;pointerEvents=1;fontSize=16;" vertex="1" parent="78GMk1-3RHfl2nPPVAb4-212">
          <mxGeometry x="75" width="75" height="24" as="geometry">
            <mxRectangle width="75" height="24" as="alternateBounds" />
          </mxGeometry>
        </mxCell>
        <mxCell id="78GMk1-3RHfl2nPPVAb4-215" value="" style="shape=tableRow;horizontal=0;startSize=0;swimlaneHead=0;swimlaneBody=0;strokeColor=inherit;top=0;left=0;bottom=0;right=0;collapsible=0;dropTarget=0;fillColor=none;points=[[0,0.5],[1,0.5]];portConstraint=eastwest;fontSize=16;" vertex="1" parent="78GMk1-3RHfl2nPPVAb4-208">
          <mxGeometry y="47" width="150" height="23" as="geometry" />
        </mxCell>
        <mxCell id="78GMk1-3RHfl2nPPVAb4-216" value="" style="shape=partialRectangle;html=1;whiteSpace=wrap;connectable=0;strokeColor=inherit;overflow=hidden;fillColor=none;top=0;left=0;bottom=0;right=0;pointerEvents=1;fontSize=16;" vertex="1" parent="78GMk1-3RHfl2nPPVAb4-215">
          <mxGeometry width="75" height="23" as="geometry">
            <mxRectangle width="75" height="23" as="alternateBounds" />
          </mxGeometry>
        </mxCell>
        <mxCell id="78GMk1-3RHfl2nPPVAb4-217" value="&lt;font face=&quot;Comic Sans MS&quot;&gt;var &amp;gt; 5&lt;/font&gt;" style="shape=partialRectangle;html=1;whiteSpace=wrap;connectable=0;strokeColor=inherit;overflow=hidden;fillColor=none;top=0;left=0;bottom=0;right=0;pointerEvents=1;fontSize=16;" vertex="1" parent="78GMk1-3RHfl2nPPVAb4-215">
          <mxGeometry x="75" width="75" height="23" as="geometry">
            <mxRectangle width="75" height="23" as="alternateBounds" />
          </mxGeometry>
        </mxCell>
        <mxCell id="78GMk1-3RHfl2nPPVAb4-218" style="shape=tableRow;horizontal=0;startSize=0;swimlaneHead=0;swimlaneBody=0;strokeColor=inherit;top=0;left=0;bottom=0;right=0;collapsible=0;dropTarget=0;fillColor=none;points=[[0,0.5],[1,0.5]];portConstraint=eastwest;fontSize=16;" vertex="1" parent="78GMk1-3RHfl2nPPVAb4-208">
          <mxGeometry y="70" width="150" height="23" as="geometry" />
        </mxCell>
        <mxCell id="78GMk1-3RHfl2nPPVAb4-219" value="..." style="shape=partialRectangle;html=1;whiteSpace=wrap;connectable=0;strokeColor=inherit;overflow=hidden;fillColor=none;top=0;left=0;bottom=0;right=0;pointerEvents=1;fontSize=16;" vertex="1" parent="78GMk1-3RHfl2nPPVAb4-218">
          <mxGeometry width="75" height="23" as="geometry">
            <mxRectangle width="75" height="23" as="alternateBounds" />
          </mxGeometry>
        </mxCell>
        <mxCell id="78GMk1-3RHfl2nPPVAb4-220" value="..." style="shape=partialRectangle;html=1;whiteSpace=wrap;connectable=0;strokeColor=inherit;overflow=hidden;fillColor=none;top=0;left=0;bottom=0;right=0;pointerEvents=1;fontSize=16;" vertex="1" parent="78GMk1-3RHfl2nPPVAb4-218">
          <mxGeometry x="75" width="75" height="23" as="geometry">
            <mxRectangle width="75" height="23" as="alternateBounds" />
          </mxGeometry>
        </mxCell>
        <mxCell id="78GMk1-3RHfl2nPPVAb4-221" value="(Abstract) Execution State" style="rounded=0;whiteSpace=wrap;html=1;fontFamily=Comic Sans MS;fillColor=#fff2cc;strokeColor=#d6b656;" vertex="1" parent="78GMk1-3RHfl2nPPVAb4-186">
          <mxGeometry x="270" width="150" height="30" as="geometry" />
        </mxCell>
        <mxCell id="78GMk1-3RHfl2nPPVAb4-222" value="$$[-\infty, +\infty]$$" style="text;html=1;align=center;verticalAlign=middle;whiteSpace=wrap;rounded=0;" vertex="1" parent="78GMk1-3RHfl2nPPVAb4-186">
          <mxGeometry x="362" y="32" width="40" height="20" as="geometry" />
        </mxCell>
        <mxCell id="78GMk1-3RHfl2nPPVAb4-223" value="&lt;font face=&quot;Comic Sans MS&quot;&gt;$$\phi_1$$&lt;/font&gt;" style="text;html=1;align=center;verticalAlign=middle;whiteSpace=wrap;rounded=0;" vertex="1" parent="78GMk1-3RHfl2nPPVAb4-186">
          <mxGeometry x="300" y="55" width="20" height="20" as="geometry" />
        </mxCell>
        <mxCell id="78GMk1-3RHfl2nPPVAb4-224" value="&lt;font face=&quot;Comic Sans MS&quot;&gt;$$\phi_2$$&lt;/font&gt;" style="text;html=1;align=center;verticalAlign=middle;whiteSpace=wrap;rounded=0;" vertex="1" parent="78GMk1-3RHfl2nPPVAb4-186">
          <mxGeometry x="300" y="76" width="20" height="20" as="geometry" />
        </mxCell>
        <mxCell id="78GMk1-3RHfl2nPPVAb4-225" value="" style="endArrow=classic;html=1;rounded=0;edgeStyle=orthogonalEdgeStyle;curved=1;strokeColor=#A1A1A1;entryX=0.668;entryY=-0.179;entryDx=0;entryDy=0;entryPerimeter=0;" edge="1" parent="78GMk1-3RHfl2nPPVAb4-186">
          <mxGeometry width="50" height="50" relative="1" as="geometry">
            <mxPoint x="131.98" y="20" as="sourcePoint" />
            <mxPoint x="70.7120000000001" y="226.41999999999996" as="targetPoint" />
            <Array as="points">
              <mxPoint x="132" y="135" />
              <mxPoint x="162" y="135" />
              <mxPoint x="162" y="180" />
              <mxPoint x="132" y="180" />
              <mxPoint x="132" y="210" />
              <mxPoint x="71" y="210" />
            </Array>
          </mxGeometry>
        </mxCell>
        <mxCell id="78GMk1-3RHfl2nPPVAb4-226" value="" style="endArrow=classic;html=1;rounded=0;edgeStyle=orthogonalEdgeStyle;curved=1;strokeColor=#A1A1A1;entryX=0.75;entryY=0;entryDx=0;entryDy=0;fontColor=#A1A1A1;" edge="1" parent="78GMk1-3RHfl2nPPVAb4-186">
          <mxGeometry width="50" height="50" relative="1" as="geometry">
            <mxPoint x="145.98999999999998" y="19" as="sourcePoint" />
            <mxPoint x="207.5" y="219" as="targetPoint" />
            <Array as="points">
              <mxPoint x="146" y="134" />
              <mxPoint x="176" y="134" />
              <mxPoint x="176" y="179" />
              <mxPoint x="168" y="179" />
              <mxPoint x="168" y="199" />
              <mxPoint x="208" y="199" />
            </Array>
          </mxGeometry>
        </mxCell>
        <mxCell id="78GMk1-3RHfl2nPPVAb4-227" value="$$\phi_2\wedge\neg\phi_1$$" style="text;html=1;align=center;verticalAlign=middle;whiteSpace=wrap;rounded=0;fontColor=#FFFFFF;" vertex="1" parent="78GMk1-3RHfl2nPPVAb4-186">
          <mxGeometry x="44" y="180" width="60" height="30" as="geometry" />
        </mxCell>
        <mxCell id="78GMk1-3RHfl2nPPVAb4-228" value="Infeasible" style="text;html=1;align=left;verticalAlign=middle;whiteSpace=wrap;rounded=0;fontFamily=Comic Sans MS;fontColor=#FFFFFF;" vertex="1" parent="78GMk1-3RHfl2nPPVAb4-186">
          <mxGeometry y="200" width="60" height="30" as="geometry" />
        </mxCell>
        <mxCell id="78GMk1-3RHfl2nPPVAb4-229" value="&lt;font&gt;Feasible&lt;/font&gt;" style="text;html=1;align=left;verticalAlign=middle;whiteSpace=wrap;rounded=0;fontFamily=Comic Sans MS;fontColor=#FFFFFF;" vertex="1" parent="78GMk1-3RHfl2nPPVAb4-186">
          <mxGeometry x="220" y="190" width="60" height="30" as="geometry" />
        </mxCell>
        <mxCell id="78GMk1-3RHfl2nPPVAb4-230" value="$$\neg\phi_2\wedge\neg\phi_1$$" style="text;html=1;align=center;verticalAlign=middle;whiteSpace=wrap;rounded=0;fontColor=#FFFFFF;" vertex="1" parent="78GMk1-3RHfl2nPPVAb4-186">
          <mxGeometry x="198" y="175" width="60" height="30" as="geometry" />
        </mxCell>
        <mxCell id="78GMk1-3RHfl2nPPVAb4-231" value="" style="shape=flexArrow;endArrow=classic;html=1;rounded=0;" edge="1" parent="78GMk1-3RHfl2nPPVAb4-186">
          <mxGeometry width="50" height="50" relative="1" as="geometry">
            <mxPoint x="350" y="130" as="sourcePoint" />
            <mxPoint x="260" y="190" as="targetPoint" />
          </mxGeometry>
        </mxCell>
        <mxCell id="78GMk1-3RHfl2nPPVAb4-232" value="&lt;font style=&quot;font-size: 14px;&quot;&gt;execution state&lt;/font&gt;" style="text;html=1;align=center;verticalAlign=middle;whiteSpace=wrap;rounded=0;fontStyle=0;fillColor=#f8cecc;strokeColor=#b85450;fontFamily=Comic Sans MS;shadow=0;textShadow=0;" vertex="1" parent="78GMk1-3RHfl2nPPVAb4-186">
          <mxGeometry x="296.43" y="210" width="173.57" height="18" as="geometry" />
        </mxCell>
        <mxCell id="78GMk1-3RHfl2nPPVAb4-233" value="&lt;font style=&quot;font-size: 14px;&quot;&gt;Check path feasibility based on&lt;/font&gt;" style="text;html=1;align=center;verticalAlign=middle;whiteSpace=wrap;rounded=0;fontSize=14;fontFamily=Comic Sans MS;" vertex="1" parent="78GMk1-3RHfl2nPPVAb4-186">
          <mxGeometry x="260" y="185" width="209" height="30" as="geometry" />
        </mxCell>
      </root>
    </mxGraphModel>
  </diagram>
  <diagram id="srVudykbFLm3c8JvrRP1" name="motivation">
    <mxGraphModel dx="1114" dy="528" grid="1" gridSize="10" guides="1" tooltips="1" connect="1" arrows="1" fold="1" page="1" pageScale="1" pageWidth="500" pageHeight="229" math="1" shadow="0">
      <root>
        <mxCell id="0" />
        <mxCell id="1" parent="0" />
        <mxCell id="FfBwUfesPPnpYMYI5kk2-1" value="" style="group" vertex="1" connectable="0" parent="1">
          <mxGeometry x="30" y="730" width="450" height="168" as="geometry" />
        </mxCell>
        <mxCell id="FfBwUfesPPnpYMYI5kk2-2" value="" style="group" vertex="1" connectable="0" parent="FfBwUfesPPnpYMYI5kk2-1">
          <mxGeometry width="230" height="150" as="geometry" />
        </mxCell>
        <mxCell id="FfBwUfesPPnpYMYI5kk2-3" value="" style="ellipse;whiteSpace=wrap;html=1;fillColor=#f5f5f5;fontColor=#333333;strokeColor=default;" vertex="1" parent="FfBwUfesPPnpYMYI5kk2-2">
          <mxGeometry width="230" height="150" as="geometry" />
        </mxCell>
        <mxCell id="FfBwUfesPPnpYMYI5kk2-4" value="&lt;p style=&quot;line-height: 100%;&quot;&gt;Path-sensitive program analysis&lt;/p&gt;" style="text;html=1;align=center;verticalAlign=middle;whiteSpace=wrap;rounded=0;fontFamily=Comic Sans MS;fontSize=14;fontStyle=0;fillColor=none;fontColor=#333333;strokeColor=none;shadow=0;textShadow=0;" vertex="1" parent="FfBwUfesPPnpYMYI5kk2-2">
          <mxGeometry x="32" y="9" width="120" height="39" as="geometry" />
        </mxCell>
        <mxCell id="FfBwUfesPPnpYMYI5kk2-5" value="&lt;font style=&quot;font-size: 14px;&quot;&gt;Path-sensitive solver&lt;/font&gt;" style="ellipse;whiteSpace=wrap;html=1;fillColor=#f8cecc;strokeColor=none;fontStyle=0;fontFamily=Comic Sans MS;" vertex="1" parent="FfBwUfesPPnpYMYI5kk2-2">
          <mxGeometry x="32" y="48" width="79" height="80" as="geometry" />
        </mxCell>
        <mxCell id="FfBwUfesPPnpYMYI5kk2-6" value="&lt;font style=&quot;font-size: 14px;&quot;&gt;Execution state&lt;/font&gt;" style="ellipse;whiteSpace=wrap;html=1;fillColor=#f8cecc;strokeColor=none;fontStyle=0;fontFamily=Comic Sans MS;" vertex="1" parent="FfBwUfesPPnpYMYI5kk2-2">
          <mxGeometry x="120" y="50" width="90" height="80" as="geometry" />
        </mxCell>
        <mxCell id="FfBwUfesPPnpYMYI5kk2-7" value="" style="group" vertex="1" connectable="0" parent="1">
          <mxGeometry x="20" y="980" width="450" height="168" as="geometry" />
        </mxCell>
        <mxCell id="FfBwUfesPPnpYMYI5kk2-8" value="" style="shape=flexArrow;endArrow=classic;html=1;rounded=0;width=19.523809523809522;endSize=7.538095238095238;fillColor=#d5e8d4;strokeColor=#82b366;" edge="1" parent="FfBwUfesPPnpYMYI5kk2-7">
          <mxGeometry width="50" height="50" relative="1" as="geometry">
            <mxPoint x="340" y="135" as="sourcePoint" />
            <mxPoint x="340" y="60" as="targetPoint" />
          </mxGeometry>
        </mxCell>
        <mxCell id="FfBwUfesPPnpYMYI5kk2-9" value="&lt;font face=&quot;Comic Sans MS&quot;&gt;Precision&lt;/font&gt;" style="text;html=1;align=center;verticalAlign=middle;whiteSpace=wrap;rounded=0;" vertex="1" parent="FfBwUfesPPnpYMYI5kk2-7">
          <mxGeometry x="310" y="138" width="60" height="30" as="geometry" />
        </mxCell>
        <mxCell id="FfBwUfesPPnpYMYI5kk2-10" value="&lt;font face=&quot;Comic Sans MS&quot;&gt;Efficiency&lt;/font&gt;" style="text;html=1;align=center;verticalAlign=middle;whiteSpace=wrap;rounded=0;" vertex="1" parent="FfBwUfesPPnpYMYI5kk2-7">
          <mxGeometry x="390" y="138" width="60" height="30" as="geometry" />
        </mxCell>
        <mxCell id="FfBwUfesPPnpYMYI5kk2-11" value="&lt;font face=&quot;Comic Sans MS&quot;&gt;Fewer False Alarms!&lt;/font&gt;" style="text;html=1;align=center;verticalAlign=middle;whiteSpace=wrap;rounded=0;" vertex="1" parent="FfBwUfesPPnpYMYI5kk2-7">
          <mxGeometry x="305" y="23.5" width="70" height="30" as="geometry" />
        </mxCell>
        <mxCell id="FfBwUfesPPnpYMYI5kk2-12" value="&lt;font face=&quot;Comic Sans MS&quot;&gt;More Scalable!&lt;/font&gt;" style="text;html=1;align=center;verticalAlign=middle;whiteSpace=wrap;rounded=0;" vertex="1" parent="FfBwUfesPPnpYMYI5kk2-7">
          <mxGeometry x="390" y="23.5" width="60" height="30" as="geometry" />
        </mxCell>
        <mxCell id="FfBwUfesPPnpYMYI5kk2-13" value="" style="shape=flexArrow;endArrow=classic;html=1;rounded=0;width=19.523809523809522;endSize=7.538095238095238;fillColor=#d5e8d4;strokeColor=#82b366;" edge="1" parent="FfBwUfesPPnpYMYI5kk2-7">
          <mxGeometry width="50" height="50" relative="1" as="geometry">
            <mxPoint x="419.76" y="133" as="sourcePoint" />
            <mxPoint x="419.76" y="58" as="targetPoint" />
          </mxGeometry>
        </mxCell>
        <mxCell id="FfBwUfesPPnpYMYI5kk2-14" value="" style="curved=1;endArrow=classic;html=1;rounded=0;" edge="1" parent="FfBwUfesPPnpYMYI5kk2-7">
          <mxGeometry width="50" height="50" relative="1" as="geometry">
            <mxPoint x="230" y="84.99999999999977" as="sourcePoint" />
            <mxPoint x="310" y="135" as="targetPoint" />
            <Array as="points">
              <mxPoint x="280" y="85" />
              <mxPoint x="230" y="134.99999999999977" />
            </Array>
          </mxGeometry>
        </mxCell>
        <mxCell id="FfBwUfesPPnpYMYI5kk2-15" value="" style="group" vertex="1" connectable="0" parent="FfBwUfesPPnpYMYI5kk2-7">
          <mxGeometry width="230" height="150" as="geometry" />
        </mxCell>
        <mxCell id="FfBwUfesPPnpYMYI5kk2-16" value="" style="ellipse;whiteSpace=wrap;html=1;fillColor=#f5f5f5;fontColor=#333333;strokeColor=default;" vertex="1" parent="FfBwUfesPPnpYMYI5kk2-15">
          <mxGeometry width="230" height="150" as="geometry" />
        </mxCell>
        <mxCell id="FfBwUfesPPnpYMYI5kk2-17" value="&lt;p style=&quot;line-height: 100%;&quot;&gt;Path-sensitive program analysis&lt;/p&gt;" style="text;html=1;align=center;verticalAlign=middle;whiteSpace=wrap;rounded=0;fontFamily=Comic Sans MS;fontSize=14;fontStyle=0;fillColor=none;fontColor=#333333;strokeColor=none;shadow=0;textShadow=0;" vertex="1" parent="FfBwUfesPPnpYMYI5kk2-15">
          <mxGeometry x="32" y="9" width="120" height="39" as="geometry" />
        </mxCell>
        <mxCell id="FfBwUfesPPnpYMYI5kk2-18" value="&lt;font style=&quot;font-size: 14px;&quot;&gt;Path-sensitive solver&lt;/font&gt;" style="ellipse;whiteSpace=wrap;html=1;fillColor=#f8cecc;strokeColor=none;fontStyle=0;fontFamily=Comic Sans MS;" vertex="1" parent="FfBwUfesPPnpYMYI5kk2-15">
          <mxGeometry x="32" y="48" width="79" height="80" as="geometry" />
        </mxCell>
        <mxCell id="FfBwUfesPPnpYMYI5kk2-19" value="&lt;font style=&quot;font-size: 14px;&quot;&gt;Execution state&lt;/font&gt;" style="ellipse;whiteSpace=wrap;html=1;fillColor=#f8cecc;strokeColor=none;fontStyle=0;fontFamily=Comic Sans MS;" vertex="1" parent="FfBwUfesPPnpYMYI5kk2-15">
          <mxGeometry x="120" y="50" width="90" height="80" as="geometry" />
        </mxCell>
        <mxCell id="FfBwUfesPPnpYMYI5kk2-20" value="&lt;font face=&quot;Comic Sans MS&quot;&gt;Improve&lt;/font&gt;" style="text;html=1;align=center;verticalAlign=middle;whiteSpace=wrap;rounded=0;" vertex="1" parent="FfBwUfesPPnpYMYI5kk2-7">
          <mxGeometry x="245" y="100" width="70" height="30" as="geometry" />
        </mxCell>
        <mxCell id="FfBwUfesPPnpYMYI5kk2-21" value="" style="group" vertex="1" connectable="0" parent="1">
          <mxGeometry x="20" y="530" width="450" height="168" as="geometry" />
        </mxCell>
        <mxCell id="FfBwUfesPPnpYMYI5kk2-22" value="" style="group" vertex="1" connectable="0" parent="FfBwUfesPPnpYMYI5kk2-21">
          <mxGeometry width="230" height="150" as="geometry" />
        </mxCell>
        <mxCell id="FfBwUfesPPnpYMYI5kk2-23" value="" style="ellipse;whiteSpace=wrap;html=1;fillColor=#f5f5f5;fontColor=#333333;strokeColor=default;" vertex="1" parent="FfBwUfesPPnpYMYI5kk2-22">
          <mxGeometry width="230" height="150" as="geometry" />
        </mxCell>
        <mxCell id="FfBwUfesPPnpYMYI5kk2-24" value="&lt;p style=&quot;line-height: 100%;&quot;&gt;Path-sensitive program analysis&lt;/p&gt;" style="text;html=1;align=center;verticalAlign=middle;whiteSpace=wrap;rounded=0;fontFamily=Comic Sans MS;fontSize=14;fontStyle=0;fillColor=none;fontColor=#333333;strokeColor=none;shadow=0;textShadow=0;" vertex="1" parent="FfBwUfesPPnpYMYI5kk2-22">
          <mxGeometry x="32" y="9" width="120" height="39" as="geometry" />
        </mxCell>
        <mxCell id="FfBwUfesPPnpYMYI5kk2-25" value="&lt;font style=&quot;font-size: 14px;&quot;&gt;Path-sensitive solver&lt;/font&gt;" style="ellipse;whiteSpace=wrap;html=1;fillColor=#f8cecc;strokeColor=none;fontStyle=0;fontFamily=Comic Sans MS;" vertex="1" parent="FfBwUfesPPnpYMYI5kk2-22">
          <mxGeometry x="32" y="48" width="79" height="80" as="geometry" />
        </mxCell>
        <mxCell id="FfBwUfesPPnpYMYI5kk2-26" value="" style="group" vertex="1" connectable="0" parent="1">
          <mxGeometry x="10" y="330" width="450" height="168" as="geometry" />
        </mxCell>
        <mxCell id="FfBwUfesPPnpYMYI5kk2-27" value="" style="group" vertex="1" connectable="0" parent="FfBwUfesPPnpYMYI5kk2-26">
          <mxGeometry width="230" height="150" as="geometry" />
        </mxCell>
        <mxCell id="FfBwUfesPPnpYMYI5kk2-28" value="" style="ellipse;whiteSpace=wrap;html=1;fillColor=#f5f5f5;fontColor=#333333;strokeColor=default;" vertex="1" parent="FfBwUfesPPnpYMYI5kk2-27">
          <mxGeometry width="230" height="150" as="geometry" />
        </mxCell>
        <mxCell id="FfBwUfesPPnpYMYI5kk2-29" value="&lt;p style=&quot;line-height: 100%;&quot;&gt;Path-sensitive program analysis&lt;/p&gt;" style="text;html=1;align=center;verticalAlign=middle;whiteSpace=wrap;rounded=0;fontFamily=Comic Sans MS;fontSize=14;fontStyle=0;fillColor=none;fontColor=#333333;strokeColor=none;shadow=0;textShadow=0;" vertex="1" parent="FfBwUfesPPnpYMYI5kk2-27">
          <mxGeometry x="32" y="9" width="120" height="39" as="geometry" />
        </mxCell>
      </root>
    </mxGraphModel>
  </diagram>
</mxfile>
